G04 #@! TF.FileFunction,Copper,L1,Top,Signal*
%FSLAX46Y46*%
G04 Gerber Fmt 4.6, Leading zero omitted, Abs format (unit mm)*
G04 Created by KiCad (PCBNEW 4.0.4-stable) date 11/15/16 10:44:39*
%MOMM*%
%LPD*%
G01*
G04 APERTURE LIST*
%ADD10C,0.100000*%
%ADD11C,0.300000*%
%ADD12C,2.500000*%
%ADD13R,1.470660X0.419100*%
%ADD14R,1.250000X1.500000*%
%ADD15R,1.500000X1.250000*%
%ADD16R,1.597660X1.800860*%
%ADD17R,1.800860X1.597660*%
%ADD18R,1.778000X1.016000*%
%ADD19R,1.270000X3.050000*%
%ADD20R,3.450000X1.020000*%
%ADD21R,1.300000X1.500000*%
%ADD22R,1.500000X1.300000*%
%ADD23R,0.400000X1.000000*%
%ADD24R,1.000000X0.400000*%
%ADD25R,3.300000X3.300000*%
%ADD26O,1.501140X2.499360*%
%ADD27R,3.050000X1.270000*%
%ADD28R,5.600700X2.100580*%
%ADD29C,0.400000*%
%ADD30C,0.600000*%
%ADD31C,0.250000*%
%ADD32C,0.030000*%
G04 APERTURE END LIST*
D10*
D11*
X143441429Y-100898571D02*
X143441429Y-99398571D01*
X144298572Y-100898571D02*
X143655715Y-100041429D01*
X144298572Y-99398571D02*
X143441429Y-100255714D01*
X144941429Y-100898571D02*
X144941429Y-99398571D01*
X145798572Y-100898571D01*
X145798572Y-99398571D01*
X129275714Y-105568571D02*
X128775714Y-104854286D01*
X128418571Y-105568571D02*
X128418571Y-104068571D01*
X128989999Y-104068571D01*
X129132857Y-104140000D01*
X129204285Y-104211429D01*
X129275714Y-104354286D01*
X129275714Y-104568571D01*
X129204285Y-104711429D01*
X129132857Y-104782857D01*
X128989999Y-104854286D01*
X128418571Y-104854286D01*
X130204285Y-104068571D02*
X130489999Y-104068571D01*
X130632857Y-104140000D01*
X130775714Y-104282857D01*
X130847142Y-104568571D01*
X130847142Y-105068571D01*
X130775714Y-105354286D01*
X130632857Y-105497143D01*
X130489999Y-105568571D01*
X130204285Y-105568571D01*
X130061428Y-105497143D01*
X129918571Y-105354286D01*
X129847142Y-105068571D01*
X129847142Y-104568571D01*
X129918571Y-104282857D01*
X130061428Y-104140000D01*
X130204285Y-104068571D01*
X131990000Y-104782857D02*
X132204286Y-104854286D01*
X132275714Y-104925714D01*
X132347143Y-105068571D01*
X132347143Y-105282857D01*
X132275714Y-105425714D01*
X132204286Y-105497143D01*
X132061428Y-105568571D01*
X131490000Y-105568571D01*
X131490000Y-104068571D01*
X131990000Y-104068571D01*
X132132857Y-104140000D01*
X132204286Y-104211429D01*
X132275714Y-104354286D01*
X132275714Y-104497143D01*
X132204286Y-104640000D01*
X132132857Y-104711429D01*
X131990000Y-104782857D01*
X131490000Y-104782857D01*
X133275714Y-104068571D02*
X133561428Y-104068571D01*
X133704286Y-104140000D01*
X133847143Y-104282857D01*
X133918571Y-104568571D01*
X133918571Y-105068571D01*
X133847143Y-105354286D01*
X133704286Y-105497143D01*
X133561428Y-105568571D01*
X133275714Y-105568571D01*
X133132857Y-105497143D01*
X132990000Y-105354286D01*
X132918571Y-105068571D01*
X132918571Y-104568571D01*
X132990000Y-104282857D01*
X133132857Y-104140000D01*
X133275714Y-104068571D01*
X135418572Y-105425714D02*
X135347143Y-105497143D01*
X135132857Y-105568571D01*
X134990000Y-105568571D01*
X134775715Y-105497143D01*
X134632857Y-105354286D01*
X134561429Y-105211429D01*
X134490000Y-104925714D01*
X134490000Y-104711429D01*
X134561429Y-104425714D01*
X134632857Y-104282857D01*
X134775715Y-104140000D01*
X134990000Y-104068571D01*
X135132857Y-104068571D01*
X135347143Y-104140000D01*
X135418572Y-104211429D01*
X136061429Y-105568571D02*
X136061429Y-104068571D01*
X136775715Y-105568571D02*
X136775715Y-104068571D01*
X137632858Y-105568571D02*
X136990001Y-104711429D01*
X137632858Y-104068571D02*
X136775715Y-104925714D01*
X170578572Y-80878571D02*
X170078572Y-80164286D01*
X169721429Y-80878571D02*
X169721429Y-79378571D01*
X170292857Y-79378571D01*
X170435715Y-79450000D01*
X170507143Y-79521429D01*
X170578572Y-79664286D01*
X170578572Y-79878571D01*
X170507143Y-80021429D01*
X170435715Y-80092857D01*
X170292857Y-80164286D01*
X169721429Y-80164286D01*
X171507143Y-79378571D02*
X171792857Y-79378571D01*
X171935715Y-79450000D01*
X172078572Y-79592857D01*
X172150000Y-79878571D01*
X172150000Y-80378571D01*
X172078572Y-80664286D01*
X171935715Y-80807143D01*
X171792857Y-80878571D01*
X171507143Y-80878571D01*
X171364286Y-80807143D01*
X171221429Y-80664286D01*
X171150000Y-80378571D01*
X171150000Y-79878571D01*
X171221429Y-79592857D01*
X171364286Y-79450000D01*
X171507143Y-79378571D01*
X172578572Y-79378571D02*
X173078572Y-80878571D01*
X173578572Y-79378571D01*
X175150000Y-79521429D02*
X175221429Y-79450000D01*
X175364286Y-79378571D01*
X175721429Y-79378571D01*
X175864286Y-79450000D01*
X175935715Y-79521429D01*
X176007143Y-79664286D01*
X176007143Y-79807143D01*
X175935715Y-80021429D01*
X175078572Y-80878571D01*
X176007143Y-80878571D01*
X176650000Y-80735714D02*
X176721428Y-80807143D01*
X176650000Y-80878571D01*
X176578571Y-80807143D01*
X176650000Y-80735714D01*
X176650000Y-80878571D01*
X177650000Y-79378571D02*
X177792857Y-79378571D01*
X177935714Y-79450000D01*
X178007143Y-79521429D01*
X178078572Y-79664286D01*
X178150000Y-79950000D01*
X178150000Y-80307143D01*
X178078572Y-80592857D01*
X178007143Y-80735714D01*
X177935714Y-80807143D01*
X177792857Y-80878571D01*
X177650000Y-80878571D01*
X177507143Y-80807143D01*
X177435714Y-80735714D01*
X177364286Y-80592857D01*
X177292857Y-80307143D01*
X177292857Y-79950000D01*
X177364286Y-79664286D01*
X177435714Y-79521429D01*
X177507143Y-79450000D01*
X177650000Y-79378571D01*
D12*
X171800000Y-113200000D03*
X171800000Y-108200000D03*
D13*
X143450920Y-92474880D03*
X143450920Y-93125120D03*
X143450920Y-93775360D03*
X143450920Y-94425600D03*
X149044000Y-90534320D03*
X143450920Y-90524160D03*
X143450920Y-91174400D03*
X143450920Y-91824640D03*
X149049080Y-95075840D03*
X149049080Y-94425600D03*
X149049080Y-93775360D03*
X149049080Y-93125120D03*
X149049080Y-92474880D03*
X149049080Y-91824640D03*
X143450920Y-95075840D03*
X149044000Y-91174400D03*
X143450920Y-89873920D03*
X143450920Y-95726080D03*
X149049080Y-95726080D03*
X149049080Y-89873920D03*
D14*
X165700000Y-86900000D03*
X165700000Y-84400000D03*
D15*
X138150000Y-93850000D03*
X135650000Y-93850000D03*
X167150000Y-81150000D03*
X164650000Y-81150000D03*
X138450000Y-87850000D03*
X135950000Y-87850000D03*
X138250000Y-91150000D03*
X135750000Y-91150000D03*
D14*
X163670000Y-112490000D03*
X163670000Y-114990000D03*
X146420000Y-104670000D03*
X146420000Y-107170000D03*
D15*
X158950000Y-95000000D03*
X156450000Y-95000000D03*
D16*
X163880140Y-102700000D03*
X166719860Y-102700000D03*
D17*
X138050000Y-96880140D03*
X138050000Y-99719860D03*
D18*
X163100000Y-95461000D03*
X163100000Y-97239000D03*
X173750000Y-84811000D03*
X173750000Y-86589000D03*
X144200000Y-111611000D03*
X144200000Y-113389000D03*
D12*
X173400000Y-95450000D03*
X168400000Y-95450000D03*
D19*
X145860000Y-86225000D03*
X143320000Y-83175000D03*
X148400000Y-83175000D03*
X150940000Y-86225000D03*
X153480000Y-83175000D03*
D20*
X158135000Y-110260000D03*
X152685000Y-110260000D03*
X158135000Y-107720000D03*
X152685000Y-107720000D03*
X152685000Y-102640000D03*
X158135000Y-102640000D03*
X152685000Y-105180000D03*
X158135000Y-105180000D03*
D21*
X163050000Y-89950000D03*
X163050000Y-92650000D03*
X169450000Y-84150000D03*
X169450000Y-86850000D03*
D22*
X155000000Y-92600000D03*
X157700000Y-92600000D03*
X157850000Y-90200000D03*
X155150000Y-90200000D03*
X169650000Y-102700000D03*
X172350000Y-102700000D03*
D21*
X134600000Y-96950000D03*
X134600000Y-99650000D03*
D23*
X160950000Y-81800000D03*
X160300000Y-81800000D03*
X159650000Y-81800000D03*
X159000000Y-81800000D03*
X158350000Y-81800000D03*
D24*
X157000000Y-83150000D03*
X157000000Y-83800000D03*
X157000000Y-84450000D03*
X157000000Y-85100000D03*
X157000000Y-85750000D03*
D23*
X158350000Y-87100000D03*
X159000000Y-87100000D03*
X159650000Y-87100000D03*
X160300000Y-87100000D03*
X160950000Y-87100000D03*
D24*
X162300000Y-85750000D03*
X162300000Y-85100000D03*
X162300000Y-84450000D03*
X162300000Y-83800000D03*
X162300000Y-83150000D03*
D25*
X159650000Y-84450000D03*
D26*
X133850000Y-111600000D03*
X136390000Y-111600000D03*
X131310000Y-111600000D03*
D27*
X124935000Y-92330000D03*
X121885000Y-94870000D03*
X121885000Y-89790000D03*
X124935000Y-87250000D03*
D28*
X136248860Y-82150000D03*
X126551140Y-82150000D03*
D14*
X142530000Y-106290000D03*
X142530000Y-103790000D03*
X122770000Y-101900000D03*
X122770000Y-104400000D03*
D29*
X165700000Y-86900000D02*
X165700000Y-88500000D01*
X165700000Y-88500000D02*
X164250000Y-89950000D01*
X164250000Y-89950000D02*
X163050000Y-89950000D01*
X162300000Y-85100000D02*
X163150000Y-85100000D01*
X164050000Y-86900000D02*
X165700000Y-86900000D01*
X163900000Y-86750000D02*
X164050000Y-86900000D01*
X163900000Y-85850000D02*
X163900000Y-86300000D01*
X163900000Y-86300000D02*
X163900000Y-86750000D01*
X163150000Y-85100000D02*
X163900000Y-85850000D01*
X165700000Y-84400000D02*
X169200000Y-84400000D01*
X169200000Y-84400000D02*
X169450000Y-84150000D01*
X162300000Y-83800000D02*
X164000000Y-83800000D01*
X164600000Y-84400000D02*
X165700000Y-84400000D01*
X164000000Y-83800000D02*
X164600000Y-84400000D01*
X143450920Y-91824640D02*
X140975360Y-91824640D01*
X139550000Y-93850000D02*
X138150000Y-93850000D01*
X139950000Y-93450000D02*
X139550000Y-93850000D01*
X139950000Y-92850000D02*
X139950000Y-93450000D01*
X140975360Y-91824640D02*
X139950000Y-92850000D01*
X143450920Y-91824640D02*
X144475360Y-91824640D01*
X143320000Y-88070000D02*
X143320000Y-83175000D01*
X144900000Y-89650000D02*
X143320000Y-88070000D01*
X144900000Y-91400000D02*
X144900000Y-89650000D01*
X144475360Y-91824640D02*
X144900000Y-91400000D01*
X162125000Y-99525000D02*
X162150000Y-99525000D01*
X163100000Y-100475000D02*
X163100000Y-101025000D01*
X162150000Y-99525000D02*
X163100000Y-100475000D01*
X151450000Y-93125120D02*
X151450000Y-93150000D01*
X159750000Y-97150000D02*
X162125000Y-99525000D01*
X157625000Y-97150000D02*
X159750000Y-97150000D01*
X156600000Y-96125000D02*
X157625000Y-97150000D01*
X154425000Y-96125000D02*
X156600000Y-96125000D01*
X151450000Y-93150000D02*
X154425000Y-96125000D01*
X143450920Y-89873920D02*
X141223920Y-89873920D01*
X141223920Y-89873920D02*
X140650000Y-89300000D01*
X158350000Y-87100000D02*
X158350000Y-85750000D01*
X158350000Y-85750000D02*
X159650000Y-84450000D01*
X159000000Y-87100000D02*
X159000000Y-85100000D01*
X159000000Y-85100000D02*
X159650000Y-84450000D01*
X159650000Y-87100000D02*
X159650000Y-84450000D01*
X157000000Y-84450000D02*
X159650000Y-84450000D01*
X162300000Y-85750000D02*
X160950000Y-85750000D01*
X160950000Y-85750000D02*
X159650000Y-84450000D01*
X162300000Y-84450000D02*
X159650000Y-84450000D01*
X162300000Y-83150000D02*
X160950000Y-83150000D01*
X160950000Y-83150000D02*
X159650000Y-84450000D01*
X160950000Y-81800000D02*
X160950000Y-83150000D01*
X160950000Y-83150000D02*
X159650000Y-84450000D01*
X160300000Y-81800000D02*
X160300000Y-83800000D01*
X160300000Y-83800000D02*
X159650000Y-84450000D01*
X159000000Y-81800000D02*
X159000000Y-83800000D01*
X159000000Y-83800000D02*
X159650000Y-84450000D01*
X158350000Y-81800000D02*
X158350000Y-83150000D01*
X158350000Y-83150000D02*
X159650000Y-84450000D01*
X149049080Y-93125120D02*
X151450000Y-93125120D01*
X151450000Y-93125120D02*
X151474880Y-93125120D01*
X151474880Y-93125120D02*
X151600000Y-93000000D01*
X122770000Y-101900000D02*
X123900000Y-101900000D01*
X123900000Y-101900000D02*
X125530000Y-103530000D01*
X131310000Y-111600000D02*
X131310000Y-110480000D01*
X131310000Y-110480000D02*
X133550000Y-108240000D01*
X146420000Y-107170000D02*
X145460000Y-107170000D01*
X124320000Y-94870000D02*
X121885000Y-94870000D01*
X125530000Y-96080000D02*
X124320000Y-94870000D01*
X125530000Y-106110000D02*
X125530000Y-103530000D01*
X125530000Y-103530000D02*
X125530000Y-96080000D01*
X127660000Y-108240000D02*
X125530000Y-106110000D01*
X138160000Y-108240000D02*
X133550000Y-108240000D01*
X133550000Y-108240000D02*
X127660000Y-108240000D01*
X141360000Y-105040000D02*
X138160000Y-108240000D01*
X144190000Y-105040000D02*
X141360000Y-105040000D01*
X144820000Y-105670000D02*
X144190000Y-105040000D01*
X144820000Y-106530000D02*
X144820000Y-105670000D01*
X145460000Y-107170000D02*
X144820000Y-106530000D01*
D30*
X163880140Y-102700000D02*
X163880140Y-106779860D01*
X154715000Y-112290000D02*
X152685000Y-110260000D01*
X159980000Y-112290000D02*
X154715000Y-112290000D01*
X160910000Y-111360000D02*
X159980000Y-112290000D01*
X160910000Y-109750000D02*
X160910000Y-111360000D01*
X163880140Y-106779860D02*
X160910000Y-109750000D01*
D29*
X146420000Y-107170000D02*
X146420000Y-108400000D01*
X146420000Y-108400000D02*
X148280000Y-110260000D01*
X148280000Y-110260000D02*
X152685000Y-110260000D01*
X163880140Y-102700000D02*
X163880140Y-103569860D01*
X156450000Y-95000000D02*
X157400000Y-95000000D01*
X163880140Y-100280140D02*
X163880140Y-102700000D01*
X160100000Y-96500000D02*
X163880140Y-100280140D01*
X158100000Y-96500000D02*
X160100000Y-96500000D01*
X157600000Y-96000000D02*
X158100000Y-96500000D01*
X157600000Y-95200000D02*
X157600000Y-96000000D01*
X157400000Y-95000000D02*
X157600000Y-95200000D01*
X156450000Y-95000000D02*
X156450000Y-94150000D01*
X156450000Y-94150000D02*
X156750000Y-93850000D01*
X156750000Y-93850000D02*
X157300000Y-93850000D01*
X157300000Y-93850000D02*
X157700000Y-93450000D01*
X157700000Y-93450000D02*
X157700000Y-92600000D01*
X149049080Y-92474880D02*
X149925120Y-92474880D01*
X149925120Y-92474880D02*
X151350000Y-91050000D01*
X151350000Y-91050000D02*
X152000000Y-91050000D01*
X152000000Y-91050000D02*
X152750000Y-91800000D01*
X152750000Y-91800000D02*
X152750000Y-93000000D01*
X152750000Y-93000000D02*
X154750000Y-95000000D01*
X154750000Y-95000000D02*
X156450000Y-95000000D01*
D11*
X145300000Y-83800000D02*
X147100000Y-83800000D01*
X150525000Y-83175000D02*
X153480000Y-83175000D01*
X149450000Y-84250000D02*
X150525000Y-83175000D01*
X149450000Y-84850000D02*
X149450000Y-84250000D01*
X148900000Y-85400000D02*
X149450000Y-84850000D01*
X147750000Y-85400000D02*
X148900000Y-85400000D01*
X147400000Y-85050000D02*
X147750000Y-85400000D01*
X147400000Y-84100000D02*
X147400000Y-85050000D01*
X147100000Y-83800000D02*
X147400000Y-84100000D01*
D29*
X153205000Y-83450000D02*
X153480000Y-83175000D01*
X157700000Y-92600000D02*
X157700000Y-90350000D01*
X157700000Y-90350000D02*
X157850000Y-90200000D01*
X159650000Y-81800000D02*
X159650000Y-80950000D01*
X159650000Y-80950000D02*
X160700000Y-79900000D01*
X164650000Y-81150000D02*
X163400000Y-81150000D01*
X153480000Y-81220000D02*
X153480000Y-83175000D01*
X160700000Y-79900000D02*
X154800000Y-79900000D01*
X154800000Y-79900000D02*
X153480000Y-81220000D01*
X162150000Y-79900000D02*
X160700000Y-79900000D01*
X163400000Y-81150000D02*
X162150000Y-79900000D01*
D11*
X144725120Y-92474880D02*
X145550000Y-91650000D01*
X144350000Y-84800000D02*
X144350000Y-84300000D01*
X144850000Y-83800000D02*
X145300000Y-83800000D01*
X144350000Y-84300000D02*
X144850000Y-83800000D01*
X144700000Y-92474880D02*
X144725120Y-92474880D01*
X143950000Y-85200000D02*
X144350000Y-84800000D01*
X143950000Y-87800000D02*
X143950000Y-85200000D01*
X145550000Y-89400000D02*
X143950000Y-87800000D01*
X145550000Y-91650000D02*
X145550000Y-89400000D01*
D29*
X143450920Y-92474880D02*
X144700000Y-92474880D01*
X144700000Y-92474880D02*
X144900000Y-92474880D01*
X144900000Y-92474880D02*
X149049080Y-92474880D01*
X138450000Y-87850000D02*
X138450000Y-84351140D01*
X138450000Y-84351140D02*
X136248860Y-82150000D01*
X143450920Y-90524160D02*
X140524160Y-90524160D01*
X140524160Y-90524160D02*
X138450000Y-88450000D01*
X138450000Y-88450000D02*
X138450000Y-87850000D01*
X138250000Y-91150000D02*
X138250000Y-90200000D01*
X130350000Y-82150000D02*
X126551140Y-82150000D01*
X133450000Y-85250000D02*
X130350000Y-82150000D01*
X133450000Y-88250000D02*
X133450000Y-85250000D01*
X134650000Y-89450000D02*
X133450000Y-88250000D01*
X137500000Y-89450000D02*
X134650000Y-89450000D01*
X138250000Y-90200000D02*
X137500000Y-89450000D01*
X143450920Y-91174400D02*
X138274400Y-91174400D01*
X138274400Y-91174400D02*
X138200000Y-91100000D01*
X138274400Y-91174400D02*
X138250000Y-91150000D01*
D30*
X163670000Y-112490000D02*
X162300000Y-112490000D01*
X146049000Y-113389000D02*
X144200000Y-113389000D01*
X147300000Y-114640000D02*
X146049000Y-113389000D01*
X160150000Y-114640000D02*
X147300000Y-114640000D01*
X162300000Y-112490000D02*
X160150000Y-114640000D01*
X171800000Y-108200000D02*
X169080000Y-108200000D01*
X164790000Y-112490000D02*
X163670000Y-112490000D01*
X169080000Y-108200000D02*
X164790000Y-112490000D01*
X141700000Y-111600000D02*
X141470000Y-111600000D01*
X142530000Y-107900000D02*
X142530000Y-106290000D01*
X141950000Y-108480000D02*
X142530000Y-107900000D01*
X141290000Y-108480000D02*
X141950000Y-108480000D01*
X140310000Y-109460000D02*
X141290000Y-108480000D01*
X140310000Y-110440000D02*
X140310000Y-109460000D01*
X141470000Y-111600000D02*
X140310000Y-110440000D01*
X140050000Y-111600000D02*
X141700000Y-111600000D01*
X141700000Y-111600000D02*
X144189000Y-111600000D01*
X144189000Y-111600000D02*
X144200000Y-111611000D01*
X140050000Y-111600000D02*
X136390000Y-111600000D01*
D29*
X166719860Y-102700000D02*
X169650000Y-102700000D01*
X143450920Y-93125120D02*
X141274880Y-93125120D01*
X138050000Y-95550000D02*
X138050000Y-96880140D01*
X138350000Y-95250000D02*
X138050000Y-95550000D01*
X139150000Y-95250000D02*
X138350000Y-95250000D01*
X141274880Y-93125120D02*
X139150000Y-95250000D01*
X138050000Y-99719860D02*
X134669860Y-99719860D01*
X134669860Y-99719860D02*
X134600000Y-99650000D01*
X163050000Y-92650000D02*
X163050000Y-95411000D01*
X163050000Y-95411000D02*
X163100000Y-95461000D01*
X163100000Y-97239000D02*
X164511000Y-97239000D01*
X164511000Y-97239000D02*
X166300000Y-95450000D01*
X166300000Y-95450000D02*
X168400000Y-95450000D01*
X169450000Y-86850000D02*
X170850000Y-86850000D01*
X171839000Y-84811000D02*
X173750000Y-84811000D01*
X171300000Y-85350000D02*
X171839000Y-84811000D01*
X171300000Y-86400000D02*
X171300000Y-85350000D01*
X170850000Y-86850000D02*
X171300000Y-86400000D01*
X173750000Y-86589000D02*
X173750000Y-88100000D01*
X173400000Y-88450000D02*
X173400000Y-95450000D01*
X173750000Y-88100000D02*
X173400000Y-88450000D01*
X145860000Y-86225000D02*
X145860000Y-88060000D01*
X147934320Y-90534320D02*
X149044000Y-90534320D01*
X147600000Y-90200000D02*
X147934320Y-90534320D01*
X147600000Y-89800000D02*
X147600000Y-90200000D01*
X145860000Y-88060000D02*
X147600000Y-89800000D01*
X150940000Y-86225000D02*
X150940000Y-89160000D01*
X150226080Y-89873920D02*
X149049080Y-89873920D01*
X150940000Y-89160000D02*
X150226080Y-89873920D01*
X149049080Y-93775360D02*
X151165360Y-93775360D01*
X159265000Y-106590000D02*
X158135000Y-107720000D01*
X160140000Y-106590000D02*
X159265000Y-106590000D01*
X161050000Y-105680000D02*
X160140000Y-106590000D01*
X161050000Y-101710000D02*
X161050000Y-105680000D01*
X159110000Y-99770000D02*
X161050000Y-101710000D01*
X157160000Y-99770000D02*
X159110000Y-99770000D01*
X151165360Y-93775360D02*
X157160000Y-99770000D01*
X143450920Y-95726080D02*
X145146080Y-95726080D01*
X150680000Y-107720000D02*
X152685000Y-107720000D01*
X150210000Y-107250000D02*
X150680000Y-107720000D01*
X150210000Y-99390000D02*
X150210000Y-107250000D01*
X149350000Y-98530000D02*
X150210000Y-99390000D01*
X147950000Y-98530000D02*
X149350000Y-98530000D01*
X145146080Y-95726080D02*
X147950000Y-98530000D01*
X143450920Y-93775360D02*
X146205360Y-93775360D01*
X152685000Y-99375000D02*
X152685000Y-102640000D01*
X151120000Y-97810000D02*
X152685000Y-99375000D01*
X148280000Y-97810000D02*
X151120000Y-97810000D01*
X147070000Y-96600000D02*
X148280000Y-97810000D01*
X147070000Y-94640000D02*
X147070000Y-96600000D01*
X146205360Y-93775360D02*
X147070000Y-94640000D01*
X149049080Y-95075840D02*
X151455840Y-95075840D01*
X158135000Y-101245000D02*
X158135000Y-102640000D01*
X157420000Y-100530000D02*
X158135000Y-101245000D01*
X156910000Y-100530000D02*
X157420000Y-100530000D01*
X151455840Y-95075840D02*
X156910000Y-100530000D01*
X149049080Y-94425600D02*
X147864400Y-94425600D01*
X154740000Y-105180000D02*
X152685000Y-105180000D01*
X155210000Y-104710000D02*
X154740000Y-105180000D01*
X155210000Y-100920000D02*
X155210000Y-104710000D01*
X151410000Y-97120000D02*
X155210000Y-100920000D01*
X148520000Y-97120000D02*
X151410000Y-97120000D01*
X147690000Y-96290000D02*
X148520000Y-97120000D01*
X147690000Y-94600000D02*
X147690000Y-96290000D01*
X147864400Y-94425600D02*
X147690000Y-94600000D01*
X149049080Y-95726080D02*
X151106080Y-95726080D01*
X156350000Y-105030000D02*
X157985000Y-105030000D01*
X155930000Y-104610000D02*
X156350000Y-105030000D01*
X155930000Y-100550000D02*
X155930000Y-104610000D01*
X151106080Y-95726080D02*
X155930000Y-100550000D01*
X157985000Y-105030000D02*
X158135000Y-105180000D01*
X149044000Y-91174400D02*
X150125600Y-91174400D01*
X153950000Y-92600000D02*
X155000000Y-92600000D01*
X153500000Y-92150000D02*
X153950000Y-92600000D01*
X153500000Y-91500000D02*
X153500000Y-92150000D01*
X152000000Y-90000000D02*
X153500000Y-91500000D01*
X151300000Y-90000000D02*
X152000000Y-90000000D01*
X150125600Y-91174400D02*
X151300000Y-90000000D01*
X160950000Y-87100000D02*
X160950000Y-88400000D01*
X155900000Y-92600000D02*
X155000000Y-92600000D01*
X156500000Y-92000000D02*
X155900000Y-92600000D01*
X156500000Y-89500000D02*
X156500000Y-92000000D01*
X157200000Y-88800000D02*
X156500000Y-89500000D01*
X160550000Y-88800000D02*
X157200000Y-88800000D01*
X160950000Y-88400000D02*
X160550000Y-88800000D01*
D31*
X147600000Y-85950000D02*
X147550000Y-85950000D01*
X147624640Y-91824640D02*
X149049080Y-91824640D01*
X146950000Y-91150000D02*
X147624640Y-91824640D01*
X146950000Y-90050000D02*
X146950000Y-91150000D01*
X144500000Y-87600000D02*
X146950000Y-90050000D01*
X144500000Y-85350000D02*
X144500000Y-87600000D01*
X144850000Y-85000000D02*
X144500000Y-85350000D01*
X144850000Y-84525002D02*
X144850000Y-85000000D01*
X145075002Y-84300000D02*
X144850000Y-84525002D01*
X146724998Y-84300000D02*
X145075002Y-84300000D01*
X146900000Y-84475002D02*
X146724998Y-84300000D01*
X146900000Y-85300000D02*
X146900000Y-84475002D01*
X147550000Y-85950000D02*
X146900000Y-85300000D01*
X150800000Y-84300000D02*
X150200000Y-84300000D01*
X147600000Y-85950000D02*
X147950000Y-85950000D01*
X149100000Y-85950000D02*
X147600000Y-85950000D01*
X149950000Y-85100000D02*
X149100000Y-85950000D01*
X149950000Y-84550000D02*
X149950000Y-85100000D01*
X150200000Y-84300000D02*
X149950000Y-84550000D01*
D29*
X155150000Y-90200000D02*
X153350000Y-90200000D01*
X152250000Y-89100000D02*
X152250000Y-87500000D01*
X153350000Y-90200000D02*
X152250000Y-89100000D01*
X160300000Y-87100000D02*
X160300000Y-87950000D01*
X156900000Y-88150000D02*
X155150000Y-89900000D01*
X160100000Y-88150000D02*
X156900000Y-88150000D01*
X160300000Y-87950000D02*
X160100000Y-88150000D01*
X155150000Y-89900000D02*
X155150000Y-90200000D01*
X155150000Y-89900000D02*
X155150000Y-90200000D01*
X152250000Y-85950000D02*
X152250000Y-87500000D01*
D11*
X150800000Y-84300000D02*
X151950000Y-84300000D01*
X152250000Y-84600000D02*
X152250000Y-85950000D01*
X151950000Y-84300000D02*
X152250000Y-84600000D01*
D31*
X150800000Y-84300000D02*
X150900000Y-84300000D01*
D29*
X132650000Y-92900000D02*
X132650000Y-89150000D01*
X130750000Y-87250000D02*
X124935000Y-87250000D01*
X132650000Y-89150000D02*
X130750000Y-87250000D01*
X143450920Y-94425600D02*
X141224400Y-94425600D01*
X141224400Y-94425600D02*
X139950000Y-95700000D01*
X139950000Y-95700000D02*
X139950000Y-100650000D01*
X139950000Y-100650000D02*
X139150000Y-101450000D01*
X139150000Y-101450000D02*
X133600000Y-101450000D01*
X133600000Y-101450000D02*
X132650000Y-100500000D01*
X132650000Y-100500000D02*
X132650000Y-92900000D01*
X122125000Y-90030000D02*
X124675000Y-90030000D01*
X141624160Y-95075840D02*
X140900000Y-95800000D01*
X140900000Y-95800000D02*
X140900000Y-100900000D01*
X140900000Y-100900000D02*
X139600000Y-102200000D01*
X139600000Y-102200000D02*
X133350000Y-102200000D01*
X133350000Y-102200000D02*
X131900000Y-100750000D01*
X131900000Y-100750000D02*
X131900000Y-91250000D01*
X131900000Y-91250000D02*
X130680000Y-90030000D01*
X130680000Y-90030000D02*
X124675000Y-90030000D01*
X141624160Y-95075840D02*
X143450920Y-95075840D01*
X122125000Y-90030000D02*
X121885000Y-89790000D01*
D32*
G36*
X179334981Y-117534988D02*
X119165000Y-117485012D01*
X119165000Y-104769750D01*
X121622000Y-104769750D01*
X121622000Y-105254031D01*
X121701622Y-105446256D01*
X121848744Y-105593378D01*
X122040969Y-105673000D01*
X122400250Y-105673000D01*
X122531000Y-105542250D01*
X122531000Y-104639000D01*
X123009000Y-104639000D01*
X123009000Y-105542250D01*
X123139750Y-105673000D01*
X123499031Y-105673000D01*
X123691256Y-105593378D01*
X123838378Y-105446256D01*
X123918000Y-105254031D01*
X123918000Y-104769750D01*
X123787250Y-104639000D01*
X123009000Y-104639000D01*
X122531000Y-104639000D01*
X121752750Y-104639000D01*
X121622000Y-104769750D01*
X119165000Y-104769750D01*
X119165000Y-92699750D01*
X122887000Y-92699750D01*
X122887000Y-93069031D01*
X122966622Y-93261256D01*
X123113744Y-93408378D01*
X123305969Y-93488000D01*
X124565250Y-93488000D01*
X124696000Y-93357250D01*
X124696000Y-92569000D01*
X125174000Y-92569000D01*
X125174000Y-93357250D01*
X125304750Y-93488000D01*
X126564031Y-93488000D01*
X126756256Y-93408378D01*
X126903378Y-93261256D01*
X126983000Y-93069031D01*
X126983000Y-92699750D01*
X126852250Y-92569000D01*
X125174000Y-92569000D01*
X124696000Y-92569000D01*
X123017750Y-92569000D01*
X122887000Y-92699750D01*
X119165000Y-92699750D01*
X119165000Y-91590969D01*
X122887000Y-91590969D01*
X122887000Y-91960250D01*
X123017750Y-92091000D01*
X124696000Y-92091000D01*
X124696000Y-91302750D01*
X125174000Y-91302750D01*
X125174000Y-92091000D01*
X126852250Y-92091000D01*
X126983000Y-91960250D01*
X126983000Y-91590969D01*
X126903378Y-91398744D01*
X126756256Y-91251622D01*
X126564031Y-91172000D01*
X125304750Y-91172000D01*
X125174000Y-91302750D01*
X124696000Y-91302750D01*
X124565250Y-91172000D01*
X123305969Y-91172000D01*
X123113744Y-91251622D01*
X122966622Y-91398744D01*
X122887000Y-91590969D01*
X119165000Y-91590969D01*
X119165000Y-89155000D01*
X119826754Y-89155000D01*
X119826754Y-90425000D01*
X119863222Y-90618812D01*
X119977765Y-90796817D01*
X120152537Y-90916234D01*
X120360000Y-90958246D01*
X123410000Y-90958246D01*
X123603812Y-90921778D01*
X123781817Y-90807235D01*
X123818874Y-90753000D01*
X130380524Y-90753000D01*
X131177000Y-91549477D01*
X131177000Y-100750000D01*
X131232035Y-101026680D01*
X131388762Y-101261238D01*
X132838762Y-102711238D01*
X133073320Y-102867965D01*
X133350000Y-102923000D01*
X139600000Y-102923000D01*
X139876680Y-102867965D01*
X140111238Y-102711238D01*
X141411238Y-101411238D01*
X141567965Y-101176680D01*
X141623000Y-100900000D01*
X141623000Y-98497000D01*
X142561286Y-98497000D01*
X142561286Y-102093000D01*
X146678715Y-102093000D01*
X146678715Y-98497000D01*
X142561286Y-98497000D01*
X141623000Y-98497000D01*
X141623000Y-96099476D01*
X141923636Y-95798840D01*
X142182344Y-95798840D01*
X142182344Y-95935630D01*
X142218812Y-96129442D01*
X142333355Y-96307447D01*
X142508127Y-96426864D01*
X142715590Y-96468876D01*
X144186250Y-96468876D01*
X144291457Y-96449080D01*
X144846604Y-96449080D01*
X147438762Y-99041238D01*
X147673320Y-99197965D01*
X147950000Y-99253000D01*
X149050524Y-99253000D01*
X149487000Y-99689476D01*
X149487000Y-107250000D01*
X149542035Y-107526680D01*
X149698762Y-107761238D01*
X150168762Y-108231238D01*
X150403319Y-108387965D01*
X150449223Y-108397096D01*
X150458544Y-108398950D01*
X150463222Y-108423812D01*
X150577765Y-108601817D01*
X150752537Y-108721234D01*
X150960000Y-108763246D01*
X154410000Y-108763246D01*
X154603812Y-108726778D01*
X154781817Y-108612235D01*
X154901234Y-108437463D01*
X154943246Y-108230000D01*
X154943246Y-107210000D01*
X154906778Y-107016188D01*
X154792235Y-106838183D01*
X154617463Y-106718766D01*
X154410000Y-106676754D01*
X150960000Y-106676754D01*
X150933000Y-106681834D01*
X150933000Y-106217778D01*
X150960000Y-106223246D01*
X154410000Y-106223246D01*
X154603812Y-106186778D01*
X154781817Y-106072235D01*
X154901234Y-105897463D01*
X154906833Y-105869815D01*
X155016680Y-105847965D01*
X155251238Y-105691238D01*
X155620000Y-105322476D01*
X155838762Y-105541238D01*
X155876754Y-105566624D01*
X155876754Y-105690000D01*
X155913222Y-105883812D01*
X156027765Y-106061817D01*
X156202537Y-106181234D01*
X156410000Y-106223246D01*
X158609278Y-106223246D01*
X158155770Y-106676754D01*
X156410000Y-106676754D01*
X156216188Y-106713222D01*
X156038183Y-106827765D01*
X155918766Y-107002537D01*
X155876754Y-107210000D01*
X155876754Y-108230000D01*
X155913222Y-108423812D01*
X156027765Y-108601817D01*
X156202537Y-108721234D01*
X156410000Y-108763246D01*
X159860000Y-108763246D01*
X160053812Y-108726778D01*
X160231817Y-108612235D01*
X160351234Y-108437463D01*
X160393246Y-108230000D01*
X160393246Y-107262626D01*
X160416680Y-107257965D01*
X160651238Y-107101238D01*
X161561238Y-106191238D01*
X161717965Y-105956681D01*
X161736791Y-105862035D01*
X161773000Y-105680000D01*
X161773000Y-101710000D01*
X161717965Y-101433320D01*
X161561238Y-101198762D01*
X159621238Y-99258762D01*
X159386680Y-99102035D01*
X159110000Y-99047000D01*
X157459476Y-99047000D01*
X151676598Y-93264122D01*
X151442040Y-93107395D01*
X151165360Y-93052360D01*
X150337220Y-93052360D01*
X150436358Y-92986118D01*
X151649476Y-91773000D01*
X151700524Y-91773000D01*
X152027000Y-92099476D01*
X152027000Y-93000000D01*
X152082035Y-93276680D01*
X152238762Y-93511238D01*
X154238762Y-95511238D01*
X154473320Y-95667965D01*
X154750000Y-95723000D01*
X155185194Y-95723000D01*
X155203222Y-95818812D01*
X155317765Y-95996817D01*
X155492537Y-96116234D01*
X155700000Y-96158246D01*
X156908477Y-96158246D01*
X156932035Y-96276680D01*
X157088762Y-96511238D01*
X157588762Y-97011238D01*
X157823320Y-97167965D01*
X158100000Y-97223000D01*
X159800524Y-97223000D01*
X163157140Y-100579616D01*
X163157140Y-101266324D01*
X163081310Y-101266324D01*
X162887498Y-101302792D01*
X162709493Y-101417335D01*
X162590076Y-101592107D01*
X162548064Y-101799570D01*
X162548064Y-103600430D01*
X162584532Y-103794242D01*
X162699075Y-103972247D01*
X162873847Y-104091664D01*
X163057140Y-104128781D01*
X163057140Y-106438962D01*
X160328051Y-109168051D01*
X160203736Y-109354102D01*
X160156256Y-109306622D01*
X159964031Y-109227000D01*
X158504750Y-109227000D01*
X158374000Y-109357750D01*
X158374000Y-110021000D01*
X158394000Y-110021000D01*
X158394000Y-110499000D01*
X158374000Y-110499000D01*
X158374000Y-111162250D01*
X158504750Y-111293000D01*
X159813102Y-111293000D01*
X159639102Y-111467000D01*
X155055898Y-111467000D01*
X154757062Y-111168164D01*
X154781817Y-111152235D01*
X154901234Y-110977463D01*
X154943246Y-110770000D01*
X154943246Y-110629750D01*
X155887000Y-110629750D01*
X155887000Y-110874031D01*
X155966622Y-111066256D01*
X156113744Y-111213378D01*
X156305969Y-111293000D01*
X157765250Y-111293000D01*
X157896000Y-111162250D01*
X157896000Y-110499000D01*
X156017750Y-110499000D01*
X155887000Y-110629750D01*
X154943246Y-110629750D01*
X154943246Y-109750000D01*
X154923672Y-109645969D01*
X155887000Y-109645969D01*
X155887000Y-109890250D01*
X156017750Y-110021000D01*
X157896000Y-110021000D01*
X157896000Y-109357750D01*
X157765250Y-109227000D01*
X156305969Y-109227000D01*
X156113744Y-109306622D01*
X155966622Y-109453744D01*
X155887000Y-109645969D01*
X154923672Y-109645969D01*
X154906778Y-109556188D01*
X154792235Y-109378183D01*
X154617463Y-109258766D01*
X154410000Y-109216754D01*
X150960000Y-109216754D01*
X150766188Y-109253222D01*
X150588183Y-109367765D01*
X150472549Y-109537000D01*
X148579476Y-109537000D01*
X147372943Y-108330467D01*
X147416817Y-108302235D01*
X147536234Y-108127463D01*
X147578246Y-107920000D01*
X147578246Y-106420000D01*
X147541778Y-106226188D01*
X147427235Y-106048183D01*
X147252463Y-105928766D01*
X147206074Y-105919372D01*
X147341256Y-105863378D01*
X147488378Y-105716256D01*
X147568000Y-105524031D01*
X147568000Y-105039750D01*
X147437250Y-104909000D01*
X146659000Y-104909000D01*
X146659000Y-104929000D01*
X146181000Y-104929000D01*
X146181000Y-104909000D01*
X145402750Y-104909000D01*
X145272000Y-105039750D01*
X145272000Y-105099523D01*
X144701238Y-104528762D01*
X144466680Y-104372035D01*
X144190000Y-104317000D01*
X143678000Y-104317000D01*
X143678000Y-104159750D01*
X143547250Y-104029000D01*
X142769000Y-104029000D01*
X142769000Y-104049000D01*
X142291000Y-104049000D01*
X142291000Y-104029000D01*
X141512750Y-104029000D01*
X141382000Y-104159750D01*
X141382000Y-104317000D01*
X141360000Y-104317000D01*
X141129223Y-104362904D01*
X141083319Y-104372035D01*
X140848762Y-104528762D01*
X137860524Y-107517000D01*
X127959476Y-107517000D01*
X126253000Y-105810524D01*
X126253000Y-103167000D01*
X127538428Y-103167000D01*
X127538428Y-106763000D01*
X138441572Y-106763000D01*
X138441572Y-103815969D01*
X145272000Y-103815969D01*
X145272000Y-104300250D01*
X145402750Y-104431000D01*
X146181000Y-104431000D01*
X146181000Y-103527750D01*
X146659000Y-103527750D01*
X146659000Y-104431000D01*
X147437250Y-104431000D01*
X147568000Y-104300250D01*
X147568000Y-103815969D01*
X147488378Y-103623744D01*
X147341256Y-103476622D01*
X147149031Y-103397000D01*
X146789750Y-103397000D01*
X146659000Y-103527750D01*
X146181000Y-103527750D01*
X146050250Y-103397000D01*
X145690969Y-103397000D01*
X145498744Y-103476622D01*
X145351622Y-103623744D01*
X145272000Y-103815969D01*
X138441572Y-103815969D01*
X138441572Y-103167000D01*
X127538428Y-103167000D01*
X126253000Y-103167000D01*
X126253000Y-102935969D01*
X141382000Y-102935969D01*
X141382000Y-103420250D01*
X141512750Y-103551000D01*
X142291000Y-103551000D01*
X142291000Y-102647750D01*
X142769000Y-102647750D01*
X142769000Y-103551000D01*
X143547250Y-103551000D01*
X143678000Y-103420250D01*
X143678000Y-102935969D01*
X143598378Y-102743744D01*
X143451256Y-102596622D01*
X143259031Y-102517000D01*
X142899750Y-102517000D01*
X142769000Y-102647750D01*
X142291000Y-102647750D01*
X142160250Y-102517000D01*
X141800969Y-102517000D01*
X141608744Y-102596622D01*
X141461622Y-102743744D01*
X141382000Y-102935969D01*
X126253000Y-102935969D01*
X126253000Y-96080000D01*
X126197965Y-95803320D01*
X126197965Y-95803319D01*
X126041238Y-95568762D01*
X124831238Y-94358762D01*
X124596680Y-94202035D01*
X124320000Y-94147000D01*
X123926688Y-94147000D01*
X123906778Y-94041188D01*
X123792235Y-93863183D01*
X123617463Y-93743766D01*
X123410000Y-93701754D01*
X120360000Y-93701754D01*
X120166188Y-93738222D01*
X119988183Y-93852765D01*
X119868766Y-94027537D01*
X119826754Y-94235000D01*
X119826754Y-95505000D01*
X119863222Y-95698812D01*
X119977765Y-95876817D01*
X120152537Y-95996234D01*
X120360000Y-96038246D01*
X123410000Y-96038246D01*
X123603812Y-96001778D01*
X123781817Y-95887235D01*
X123901234Y-95712463D01*
X123925426Y-95593000D01*
X124020524Y-95593000D01*
X124807000Y-96379476D01*
X124807000Y-101784524D01*
X124411238Y-101388762D01*
X124176680Y-101232035D01*
X123928246Y-101182618D01*
X123928246Y-101150000D01*
X123891778Y-100956188D01*
X123777235Y-100778183D01*
X123602463Y-100658766D01*
X123395000Y-100616754D01*
X122145000Y-100616754D01*
X121951188Y-100653222D01*
X121773183Y-100767765D01*
X121653766Y-100942537D01*
X121611754Y-101150000D01*
X121611754Y-102650000D01*
X121648222Y-102843812D01*
X121762765Y-103021817D01*
X121937537Y-103141234D01*
X121983926Y-103150628D01*
X121848744Y-103206622D01*
X121701622Y-103353744D01*
X121622000Y-103545969D01*
X121622000Y-104030250D01*
X121752750Y-104161000D01*
X122531000Y-104161000D01*
X122531000Y-104141000D01*
X123009000Y-104141000D01*
X123009000Y-104161000D01*
X123787250Y-104161000D01*
X123918000Y-104030250D01*
X123918000Y-103545969D01*
X123838378Y-103353744D01*
X123691256Y-103206622D01*
X123559909Y-103152216D01*
X123588812Y-103146778D01*
X123766817Y-103032235D01*
X123865432Y-102887908D01*
X124807000Y-103829476D01*
X124807000Y-106110000D01*
X124862035Y-106386680D01*
X125018762Y-106621238D01*
X127148762Y-108751238D01*
X127383320Y-108907965D01*
X127660000Y-108963000D01*
X131804524Y-108963000D01*
X130891735Y-109875789D01*
X130822626Y-109889536D01*
X130409450Y-110165611D01*
X130133375Y-110578787D01*
X130036430Y-111066161D01*
X130036430Y-112133839D01*
X130133375Y-112621213D01*
X130409450Y-113034389D01*
X130822626Y-113310464D01*
X131310000Y-113407409D01*
X131797374Y-113310464D01*
X132210550Y-113034389D01*
X132486625Y-112621213D01*
X132576430Y-112169734D01*
X132576430Y-112338110D01*
X132764836Y-112807291D01*
X133118448Y-113168658D01*
X133418252Y-113297264D01*
X133611000Y-113216659D01*
X133611000Y-111839000D01*
X133591000Y-111839000D01*
X133591000Y-111361000D01*
X133611000Y-111361000D01*
X133611000Y-109983341D01*
X133418252Y-109902736D01*
X133118448Y-110031342D01*
X132764836Y-110392709D01*
X132576430Y-110861890D01*
X132576430Y-111030266D01*
X132486625Y-110578787D01*
X132385313Y-110427163D01*
X133849476Y-108963000D01*
X138160000Y-108963000D01*
X138436680Y-108907965D01*
X138671238Y-108751238D01*
X141371754Y-106050722D01*
X141371754Y-107040000D01*
X141408222Y-107233812D01*
X141522765Y-107411817D01*
X141697537Y-107531234D01*
X141707000Y-107533150D01*
X141707000Y-107559102D01*
X141609102Y-107657000D01*
X141290000Y-107657000D01*
X140975052Y-107719647D01*
X140956512Y-107732035D01*
X140708051Y-107898051D01*
X139728051Y-108878051D01*
X139549647Y-109145051D01*
X139530690Y-109240353D01*
X139487000Y-109460000D01*
X139487000Y-110440000D01*
X139549647Y-110754949D01*
X139564381Y-110777000D01*
X137606052Y-110777000D01*
X137566625Y-110578787D01*
X137290550Y-110165611D01*
X136877374Y-109889536D01*
X136390000Y-109792591D01*
X135902626Y-109889536D01*
X135489450Y-110165611D01*
X135213375Y-110578787D01*
X135123570Y-111030266D01*
X135123570Y-110861890D01*
X134935164Y-110392709D01*
X134581552Y-110031342D01*
X134281748Y-109902736D01*
X134089000Y-109983341D01*
X134089000Y-111361000D01*
X134109000Y-111361000D01*
X134109000Y-111839000D01*
X134089000Y-111839000D01*
X134089000Y-113216659D01*
X134281748Y-113297264D01*
X134581552Y-113168658D01*
X134935164Y-112807291D01*
X135123570Y-112338110D01*
X135123570Y-112169734D01*
X135213375Y-112621213D01*
X135489450Y-113034389D01*
X135902626Y-113310464D01*
X136390000Y-113407409D01*
X136877374Y-113310464D01*
X137290550Y-113034389D01*
X137566625Y-112621213D01*
X137606052Y-112423000D01*
X142885126Y-112423000D01*
X142928765Y-112490817D01*
X142939808Y-112498363D01*
X142939183Y-112498765D01*
X142819766Y-112673537D01*
X142777754Y-112881000D01*
X142777754Y-113897000D01*
X142814222Y-114090812D01*
X142928765Y-114268817D01*
X143103537Y-114388234D01*
X143311000Y-114430246D01*
X145089000Y-114430246D01*
X145282812Y-114393778D01*
X145460817Y-114279235D01*
X145506757Y-114212000D01*
X145708102Y-114212000D01*
X146718051Y-115221949D01*
X146985051Y-115400353D01*
X147300000Y-115463000D01*
X160150000Y-115463000D01*
X160464949Y-115400353D01*
X160525715Y-115359750D01*
X162522000Y-115359750D01*
X162522000Y-115844031D01*
X162601622Y-116036256D01*
X162748744Y-116183378D01*
X162940969Y-116263000D01*
X163300250Y-116263000D01*
X163431000Y-116132250D01*
X163431000Y-115229000D01*
X163909000Y-115229000D01*
X163909000Y-116132250D01*
X164039750Y-116263000D01*
X164399031Y-116263000D01*
X164591256Y-116183378D01*
X164738378Y-116036256D01*
X164818000Y-115844031D01*
X164818000Y-115359750D01*
X164687250Y-115229000D01*
X163909000Y-115229000D01*
X163431000Y-115229000D01*
X162652750Y-115229000D01*
X162522000Y-115359750D01*
X160525715Y-115359750D01*
X160731949Y-115221949D01*
X162543766Y-113410132D01*
X162548222Y-113433812D01*
X162662765Y-113611817D01*
X162837537Y-113731234D01*
X162883926Y-113740628D01*
X162748744Y-113796622D01*
X162601622Y-113943744D01*
X162522000Y-114135969D01*
X162522000Y-114620250D01*
X162652750Y-114751000D01*
X163431000Y-114751000D01*
X163431000Y-114731000D01*
X163909000Y-114731000D01*
X163909000Y-114751000D01*
X164687250Y-114751000D01*
X164818000Y-114620250D01*
X164818000Y-114542702D01*
X170795295Y-114542702D01*
X170940123Y-114790130D01*
X171614093Y-114998150D01*
X172316366Y-114932417D01*
X172659877Y-114790130D01*
X172804705Y-114542702D01*
X171800000Y-113537997D01*
X170795295Y-114542702D01*
X164818000Y-114542702D01*
X164818000Y-114135969D01*
X164738378Y-113943744D01*
X164591256Y-113796622D01*
X164459909Y-113742216D01*
X164488812Y-113736778D01*
X164666817Y-113622235D01*
X164786234Y-113447463D01*
X164814448Y-113308137D01*
X165104949Y-113250353D01*
X165371949Y-113071949D01*
X165429805Y-113014093D01*
X170001850Y-113014093D01*
X170067583Y-113716366D01*
X170209870Y-114059877D01*
X170457298Y-114204705D01*
X171462003Y-113200000D01*
X172137997Y-113200000D01*
X173142702Y-114204705D01*
X173390130Y-114059877D01*
X173598150Y-113385907D01*
X173532417Y-112683634D01*
X173390130Y-112340123D01*
X173142702Y-112195295D01*
X172137997Y-113200000D01*
X171462003Y-113200000D01*
X170457298Y-112195295D01*
X170209870Y-112340123D01*
X170001850Y-113014093D01*
X165429805Y-113014093D01*
X166586600Y-111857298D01*
X170795295Y-111857298D01*
X171800000Y-112862003D01*
X172804705Y-111857298D01*
X172659877Y-111609870D01*
X171985907Y-111401850D01*
X171283634Y-111467583D01*
X170940123Y-111609870D01*
X170795295Y-111857298D01*
X166586600Y-111857298D01*
X169420898Y-109023000D01*
X170221668Y-109023000D01*
X170296047Y-109203012D01*
X170794365Y-109702200D01*
X171445781Y-109972691D01*
X172151124Y-109973307D01*
X172803012Y-109703953D01*
X173302200Y-109205635D01*
X173572691Y-108554219D01*
X173573307Y-107848876D01*
X173303953Y-107196988D01*
X172805635Y-106697800D01*
X172154219Y-106427309D01*
X171448876Y-106426693D01*
X170796988Y-106696047D01*
X170297800Y-107194365D01*
X170221963Y-107377000D01*
X169080000Y-107377000D01*
X168765052Y-107439647D01*
X168634798Y-107526680D01*
X168498051Y-107618051D01*
X164704910Y-111411192D01*
X164677235Y-111368183D01*
X164502463Y-111248766D01*
X164295000Y-111206754D01*
X163045000Y-111206754D01*
X162851188Y-111243222D01*
X162673183Y-111357765D01*
X162553766Y-111532537D01*
X162526537Y-111667000D01*
X162300000Y-111667000D01*
X161985051Y-111729647D01*
X161718051Y-111908051D01*
X159809102Y-113817000D01*
X147640898Y-113817000D01*
X146630949Y-112807051D01*
X146363949Y-112628647D01*
X146049000Y-112566000D01*
X145507796Y-112566000D01*
X145471235Y-112509183D01*
X145460192Y-112501637D01*
X145460817Y-112501235D01*
X145580234Y-112326463D01*
X145622246Y-112119000D01*
X145622246Y-111103000D01*
X145585778Y-110909188D01*
X145471235Y-110731183D01*
X145296463Y-110611766D01*
X145089000Y-110569754D01*
X143311000Y-110569754D01*
X143117188Y-110606222D01*
X142939183Y-110720765D01*
X142900759Y-110777000D01*
X141810898Y-110777000D01*
X141133000Y-110099102D01*
X141133000Y-109800898D01*
X141630898Y-109303000D01*
X141950000Y-109303000D01*
X142264949Y-109240353D01*
X142531949Y-109061949D01*
X143111949Y-108481949D01*
X143290353Y-108214949D01*
X143353000Y-107900000D01*
X143353000Y-107534083D01*
X143526817Y-107422235D01*
X143646234Y-107247463D01*
X143688246Y-107040000D01*
X143688246Y-105763000D01*
X143890524Y-105763000D01*
X144097000Y-105969477D01*
X144097000Y-106530000D01*
X144152035Y-106806680D01*
X144308762Y-107041238D01*
X144948762Y-107681238D01*
X145183320Y-107837965D01*
X145261754Y-107853566D01*
X145261754Y-107920000D01*
X145298222Y-108113812D01*
X145412765Y-108291817D01*
X145587537Y-108411234D01*
X145703923Y-108434803D01*
X145752035Y-108676680D01*
X145908762Y-108911238D01*
X147768762Y-110771238D01*
X148003320Y-110927965D01*
X148280000Y-110983000D01*
X150475569Y-110983000D01*
X150577765Y-111141817D01*
X150752537Y-111261234D01*
X150960000Y-111303246D01*
X152564348Y-111303246D01*
X154133051Y-112871949D01*
X154400051Y-113050353D01*
X154715000Y-113113000D01*
X159980000Y-113113000D01*
X160294949Y-113050353D01*
X160561949Y-112871949D01*
X161491949Y-111941949D01*
X161670353Y-111674949D01*
X161733000Y-111360000D01*
X161733000Y-110090898D01*
X164462089Y-107361809D01*
X164563524Y-107210000D01*
X164640493Y-107094808D01*
X164703140Y-106779860D01*
X164703140Y-104129128D01*
X164872782Y-104097208D01*
X165050787Y-103982665D01*
X165170204Y-103807893D01*
X165212216Y-103600430D01*
X165212216Y-101799570D01*
X165387784Y-101799570D01*
X165387784Y-103600430D01*
X165424252Y-103794242D01*
X165538795Y-103972247D01*
X165713567Y-104091664D01*
X165921030Y-104133676D01*
X167518690Y-104133676D01*
X167712502Y-104097208D01*
X167890507Y-103982665D01*
X168009924Y-103807893D01*
X168051936Y-103600430D01*
X168051936Y-103423000D01*
X168380490Y-103423000D01*
X168403222Y-103543812D01*
X168517765Y-103721817D01*
X168692537Y-103841234D01*
X168900000Y-103883246D01*
X170400000Y-103883246D01*
X170593812Y-103846778D01*
X170771817Y-103732235D01*
X170891234Y-103557463D01*
X170933246Y-103350000D01*
X170933246Y-103069750D01*
X171077000Y-103069750D01*
X171077000Y-103454031D01*
X171156622Y-103646256D01*
X171303744Y-103793378D01*
X171495969Y-103873000D01*
X171980250Y-103873000D01*
X172111000Y-103742250D01*
X172111000Y-102939000D01*
X172589000Y-102939000D01*
X172589000Y-103742250D01*
X172719750Y-103873000D01*
X173204031Y-103873000D01*
X173396256Y-103793378D01*
X173543378Y-103646256D01*
X173623000Y-103454031D01*
X173623000Y-103069750D01*
X173492250Y-102939000D01*
X172589000Y-102939000D01*
X172111000Y-102939000D01*
X171207750Y-102939000D01*
X171077000Y-103069750D01*
X170933246Y-103069750D01*
X170933246Y-102050000D01*
X170913672Y-101945969D01*
X171077000Y-101945969D01*
X171077000Y-102330250D01*
X171207750Y-102461000D01*
X172111000Y-102461000D01*
X172111000Y-101657750D01*
X172589000Y-101657750D01*
X172589000Y-102461000D01*
X173492250Y-102461000D01*
X173623000Y-102330250D01*
X173623000Y-101945969D01*
X173543378Y-101753744D01*
X173396256Y-101606622D01*
X173204031Y-101527000D01*
X172719750Y-101527000D01*
X172589000Y-101657750D01*
X172111000Y-101657750D01*
X171980250Y-101527000D01*
X171495969Y-101527000D01*
X171303744Y-101606622D01*
X171156622Y-101753744D01*
X171077000Y-101945969D01*
X170913672Y-101945969D01*
X170896778Y-101856188D01*
X170782235Y-101678183D01*
X170607463Y-101558766D01*
X170400000Y-101516754D01*
X168900000Y-101516754D01*
X168706188Y-101553222D01*
X168528183Y-101667765D01*
X168408766Y-101842537D01*
X168381537Y-101977000D01*
X168051936Y-101977000D01*
X168051936Y-101799570D01*
X168015468Y-101605758D01*
X167900925Y-101427753D01*
X167726153Y-101308336D01*
X167518690Y-101266324D01*
X165921030Y-101266324D01*
X165727218Y-101302792D01*
X165549213Y-101417335D01*
X165429796Y-101592107D01*
X165387784Y-101799570D01*
X165212216Y-101799570D01*
X165175748Y-101605758D01*
X165061205Y-101427753D01*
X164886433Y-101308336D01*
X164678970Y-101266324D01*
X164603140Y-101266324D01*
X164603140Y-100280140D01*
X164548105Y-100003460D01*
X164391378Y-99768902D01*
X162902722Y-98280246D01*
X163989000Y-98280246D01*
X164182812Y-98243778D01*
X164360817Y-98129235D01*
X164475084Y-97962000D01*
X164511000Y-97962000D01*
X164787680Y-97906965D01*
X165022238Y-97750238D01*
X166599476Y-96173000D01*
X166780349Y-96173000D01*
X166896047Y-96453012D01*
X167394365Y-96952200D01*
X168045781Y-97222691D01*
X168751124Y-97223307D01*
X169403012Y-96953953D01*
X169902200Y-96455635D01*
X170172691Y-95804219D01*
X170173307Y-95098876D01*
X169903953Y-94446988D01*
X169405635Y-93947800D01*
X168754219Y-93677309D01*
X168048876Y-93676693D01*
X167396988Y-93946047D01*
X166897800Y-94444365D01*
X166780440Y-94727000D01*
X166300000Y-94727000D01*
X166023320Y-94782035D01*
X165788762Y-94938762D01*
X164369516Y-96358008D01*
X164360192Y-96351637D01*
X164360817Y-96351235D01*
X164480234Y-96176463D01*
X164522246Y-95969000D01*
X164522246Y-94953000D01*
X164485778Y-94759188D01*
X164371235Y-94581183D01*
X164196463Y-94461766D01*
X163989000Y-94419754D01*
X163773000Y-94419754D01*
X163773000Y-93919510D01*
X163893812Y-93896778D01*
X164071817Y-93782235D01*
X164191234Y-93607463D01*
X164233246Y-93400000D01*
X164233246Y-91900000D01*
X164196778Y-91706188D01*
X164082235Y-91528183D01*
X163907463Y-91408766D01*
X163700000Y-91366754D01*
X162400000Y-91366754D01*
X162206188Y-91403222D01*
X162028183Y-91517765D01*
X161908766Y-91692537D01*
X161866754Y-91900000D01*
X161866754Y-93400000D01*
X161903222Y-93593812D01*
X162017765Y-93771817D01*
X162192537Y-93891234D01*
X162327000Y-93918463D01*
X162327000Y-94419754D01*
X162211000Y-94419754D01*
X162017188Y-94456222D01*
X161839183Y-94570765D01*
X161719766Y-94745537D01*
X161677754Y-94953000D01*
X161677754Y-95969000D01*
X161714222Y-96162812D01*
X161828765Y-96340817D01*
X161839808Y-96348363D01*
X161839183Y-96348765D01*
X161719766Y-96523537D01*
X161677754Y-96731000D01*
X161677754Y-97055278D01*
X160611238Y-95988762D01*
X160376680Y-95832035D01*
X160195280Y-95795952D01*
X160223000Y-95729031D01*
X160223000Y-95369750D01*
X160092250Y-95239000D01*
X159189000Y-95239000D01*
X159189000Y-95259000D01*
X158711000Y-95259000D01*
X158711000Y-95239000D01*
X158691000Y-95239000D01*
X158691000Y-94761000D01*
X158711000Y-94761000D01*
X158711000Y-93982750D01*
X159189000Y-93982750D01*
X159189000Y-94761000D01*
X160092250Y-94761000D01*
X160223000Y-94630250D01*
X160223000Y-94270969D01*
X160143378Y-94078744D01*
X159996256Y-93931622D01*
X159804031Y-93852000D01*
X159319750Y-93852000D01*
X159189000Y-93982750D01*
X158711000Y-93982750D01*
X158580250Y-93852000D01*
X158284229Y-93852000D01*
X158330169Y-93783246D01*
X158450000Y-93783246D01*
X158643812Y-93746778D01*
X158821817Y-93632235D01*
X158941234Y-93457463D01*
X158983246Y-93250000D01*
X158983246Y-91950000D01*
X158946778Y-91756188D01*
X158832235Y-91578183D01*
X158657463Y-91458766D01*
X158450000Y-91416754D01*
X158423000Y-91416754D01*
X158423000Y-91383246D01*
X158600000Y-91383246D01*
X158793812Y-91346778D01*
X158971817Y-91232235D01*
X159091234Y-91057463D01*
X159133246Y-90850000D01*
X159133246Y-89550000D01*
X159128166Y-89523000D01*
X160550000Y-89523000D01*
X160826680Y-89467965D01*
X161061238Y-89311238D01*
X161461238Y-88911239D01*
X161617965Y-88676681D01*
X161635453Y-88588762D01*
X161673000Y-88400000D01*
X161673000Y-87650597D01*
X161683246Y-87600000D01*
X161683246Y-86600000D01*
X161660503Y-86479131D01*
X161675226Y-86464408D01*
X161695969Y-86473000D01*
X161930250Y-86473000D01*
X162061000Y-86342250D01*
X162061000Y-85850000D01*
X162041000Y-85850000D01*
X162041000Y-85833246D01*
X162559000Y-85833246D01*
X162559000Y-85850000D01*
X162539000Y-85850000D01*
X162539000Y-86342250D01*
X162669750Y-86473000D01*
X162904031Y-86473000D01*
X163096256Y-86393378D01*
X163177000Y-86312634D01*
X163177000Y-86750000D01*
X163232035Y-87026680D01*
X163388762Y-87261238D01*
X163538762Y-87411238D01*
X163773320Y-87567965D01*
X164050000Y-87623000D01*
X164541754Y-87623000D01*
X164541754Y-87650000D01*
X164578222Y-87843812D01*
X164692765Y-88021817D01*
X164867537Y-88141234D01*
X164977000Y-88163401D01*
X164977000Y-88200524D01*
X164186817Y-88990707D01*
X164082235Y-88828183D01*
X163907463Y-88708766D01*
X163700000Y-88666754D01*
X162400000Y-88666754D01*
X162206188Y-88703222D01*
X162028183Y-88817765D01*
X161908766Y-88992537D01*
X161866754Y-89200000D01*
X161866754Y-90700000D01*
X161903222Y-90893812D01*
X162017765Y-91071817D01*
X162192537Y-91191234D01*
X162400000Y-91233246D01*
X163700000Y-91233246D01*
X163893812Y-91196778D01*
X164071817Y-91082235D01*
X164191234Y-90907463D01*
X164233246Y-90700000D01*
X164233246Y-90673000D01*
X164250000Y-90673000D01*
X164526680Y-90617965D01*
X164761238Y-90461238D01*
X166211238Y-89011238D01*
X166367965Y-88776680D01*
X166423000Y-88500000D01*
X166423000Y-88164806D01*
X166518812Y-88146778D01*
X166696817Y-88032235D01*
X166816234Y-87857463D01*
X166858246Y-87650000D01*
X166858246Y-86150000D01*
X166848838Y-86100000D01*
X168266754Y-86100000D01*
X168266754Y-87600000D01*
X168303222Y-87793812D01*
X168417765Y-87971817D01*
X168592537Y-88091234D01*
X168800000Y-88133246D01*
X170100000Y-88133246D01*
X170293812Y-88096778D01*
X170471817Y-87982235D01*
X170591234Y-87807463D01*
X170633246Y-87600000D01*
X170633246Y-87573000D01*
X170850000Y-87573000D01*
X171126680Y-87517965D01*
X171361238Y-87361238D01*
X171811238Y-86911238D01*
X171967965Y-86676680D01*
X172023000Y-86400000D01*
X172023000Y-85649476D01*
X172138476Y-85534000D01*
X172377856Y-85534000D01*
X172478765Y-85690817D01*
X172489808Y-85698363D01*
X172489183Y-85698765D01*
X172369766Y-85873537D01*
X172327754Y-86081000D01*
X172327754Y-87097000D01*
X172364222Y-87290812D01*
X172478765Y-87468817D01*
X172653537Y-87588234D01*
X172861000Y-87630246D01*
X173027000Y-87630246D01*
X173027000Y-87800524D01*
X172888762Y-87938762D01*
X172732035Y-88173320D01*
X172677000Y-88450000D01*
X172677000Y-93830349D01*
X172396988Y-93946047D01*
X171897800Y-94444365D01*
X171627309Y-95095781D01*
X171626693Y-95801124D01*
X171896047Y-96453012D01*
X172394365Y-96952200D01*
X173045781Y-97222691D01*
X173751124Y-97223307D01*
X174403012Y-96953953D01*
X174902200Y-96455635D01*
X175172691Y-95804219D01*
X175173307Y-95098876D01*
X174903953Y-94446988D01*
X174405635Y-93947800D01*
X174123000Y-93830440D01*
X174123000Y-88749476D01*
X174261238Y-88611238D01*
X174417965Y-88376680D01*
X174473000Y-88100000D01*
X174473000Y-87630246D01*
X174639000Y-87630246D01*
X174832812Y-87593778D01*
X175010817Y-87479235D01*
X175130234Y-87304463D01*
X175172246Y-87097000D01*
X175172246Y-86081000D01*
X175135778Y-85887188D01*
X175021235Y-85709183D01*
X175010192Y-85701637D01*
X175010817Y-85701235D01*
X175130234Y-85526463D01*
X175172246Y-85319000D01*
X175172246Y-84303000D01*
X175135778Y-84109188D01*
X175021235Y-83931183D01*
X174846463Y-83811766D01*
X174639000Y-83769754D01*
X172861000Y-83769754D01*
X172667188Y-83806222D01*
X172489183Y-83920765D01*
X172374916Y-84088000D01*
X171839000Y-84088000D01*
X171562320Y-84143035D01*
X171327762Y-84299762D01*
X170788762Y-84838762D01*
X170632035Y-85073320D01*
X170577000Y-85350000D01*
X170577000Y-85875452D01*
X170482235Y-85728183D01*
X170307463Y-85608766D01*
X170100000Y-85566754D01*
X168800000Y-85566754D01*
X168606188Y-85603222D01*
X168428183Y-85717765D01*
X168308766Y-85892537D01*
X168266754Y-86100000D01*
X166848838Y-86100000D01*
X166821778Y-85956188D01*
X166707235Y-85778183D01*
X166532463Y-85658766D01*
X166495202Y-85651221D01*
X166518812Y-85646778D01*
X166696817Y-85532235D01*
X166816234Y-85357463D01*
X166858246Y-85150000D01*
X166858246Y-85123000D01*
X168322004Y-85123000D01*
X168417765Y-85271817D01*
X168592537Y-85391234D01*
X168800000Y-85433246D01*
X170100000Y-85433246D01*
X170293812Y-85396778D01*
X170471817Y-85282235D01*
X170591234Y-85107463D01*
X170633246Y-84900000D01*
X170633246Y-83400000D01*
X170596778Y-83206188D01*
X170482235Y-83028183D01*
X170307463Y-82908766D01*
X170100000Y-82866754D01*
X168800000Y-82866754D01*
X168606188Y-82903222D01*
X168428183Y-83017765D01*
X168308766Y-83192537D01*
X168266754Y-83400000D01*
X168266754Y-83677000D01*
X166858246Y-83677000D01*
X166858246Y-83650000D01*
X166821778Y-83456188D01*
X166707235Y-83278183D01*
X166532463Y-83158766D01*
X166325000Y-83116754D01*
X165075000Y-83116754D01*
X164881188Y-83153222D01*
X164703183Y-83267765D01*
X164616746Y-83394270D01*
X164511238Y-83288762D01*
X164276680Y-83132035D01*
X164000000Y-83077000D01*
X163323000Y-83077000D01*
X163323000Y-82845969D01*
X163243378Y-82653744D01*
X163096256Y-82506622D01*
X162904031Y-82427000D01*
X162669750Y-82427000D01*
X162539000Y-82557750D01*
X162539000Y-83050000D01*
X162559000Y-83050000D01*
X162559000Y-83066754D01*
X162041000Y-83066754D01*
X162041000Y-83050000D01*
X162061000Y-83050000D01*
X162061000Y-82557750D01*
X161930250Y-82427000D01*
X161695969Y-82427000D01*
X161675226Y-82435592D01*
X161664408Y-82424774D01*
X161673000Y-82404031D01*
X161673000Y-82169750D01*
X161542250Y-82039000D01*
X161050000Y-82039000D01*
X161050000Y-82059000D01*
X160912250Y-82059000D01*
X160892250Y-82039000D01*
X160750000Y-82039000D01*
X160750000Y-81561000D01*
X160892250Y-81561000D01*
X161023000Y-81430250D01*
X161023000Y-81195969D01*
X160943378Y-81003744D01*
X160850000Y-80910366D01*
X160850000Y-80907750D01*
X161050000Y-80907750D01*
X161050000Y-81561000D01*
X161542250Y-81561000D01*
X161673000Y-81430250D01*
X161673000Y-81195969D01*
X161593378Y-81003744D01*
X161446256Y-80856622D01*
X161254031Y-80777000D01*
X161180750Y-80777000D01*
X161050000Y-80907750D01*
X160850000Y-80907750D01*
X160782363Y-80840113D01*
X160999476Y-80623000D01*
X161850524Y-80623000D01*
X162888762Y-81661238D01*
X163123320Y-81817965D01*
X163384618Y-81869940D01*
X163403222Y-81968812D01*
X163517765Y-82146817D01*
X163692537Y-82266234D01*
X163900000Y-82308246D01*
X165400000Y-82308246D01*
X165593812Y-82271778D01*
X165771817Y-82157235D01*
X165891234Y-81982463D01*
X165900628Y-81936074D01*
X165956622Y-82071256D01*
X166103744Y-82218378D01*
X166295969Y-82298000D01*
X166780250Y-82298000D01*
X166911000Y-82167250D01*
X166911000Y-81389000D01*
X167389000Y-81389000D01*
X167389000Y-82167250D01*
X167519750Y-82298000D01*
X168004031Y-82298000D01*
X168196256Y-82218378D01*
X168343378Y-82071256D01*
X168423000Y-81879031D01*
X168423000Y-81519750D01*
X168292250Y-81389000D01*
X167389000Y-81389000D01*
X166911000Y-81389000D01*
X166891000Y-81389000D01*
X166891000Y-80911000D01*
X166911000Y-80911000D01*
X166911000Y-80132750D01*
X167389000Y-80132750D01*
X167389000Y-80911000D01*
X168292250Y-80911000D01*
X168423000Y-80780250D01*
X168423000Y-80420969D01*
X168343378Y-80228744D01*
X168196256Y-80081622D01*
X168004031Y-80002000D01*
X167519750Y-80002000D01*
X167389000Y-80132750D01*
X166911000Y-80132750D01*
X166780250Y-80002000D01*
X166295969Y-80002000D01*
X166103744Y-80081622D01*
X165956622Y-80228744D01*
X165902216Y-80360091D01*
X165896778Y-80331188D01*
X165782235Y-80153183D01*
X165607463Y-80033766D01*
X165400000Y-79991754D01*
X163900000Y-79991754D01*
X163706188Y-80028222D01*
X163528183Y-80142765D01*
X163482338Y-80209862D01*
X162661238Y-79388762D01*
X162426680Y-79232035D01*
X162150000Y-79177000D01*
X154800000Y-79177000D01*
X154523320Y-79232035D01*
X154288762Y-79388762D01*
X152968762Y-80708762D01*
X152812035Y-80943320D01*
X152774914Y-81129942D01*
X152651188Y-81153222D01*
X152473183Y-81267765D01*
X152353766Y-81442537D01*
X152311754Y-81650000D01*
X152311754Y-82502000D01*
X150525000Y-82502000D01*
X150267454Y-82553229D01*
X150049117Y-82699117D01*
X149334234Y-83414000D01*
X148639000Y-83414000D01*
X148639000Y-83434000D01*
X148161000Y-83434000D01*
X148161000Y-83414000D01*
X148141000Y-83414000D01*
X148141000Y-82936000D01*
X148161000Y-82936000D01*
X148161000Y-81257750D01*
X148639000Y-81257750D01*
X148639000Y-82936000D01*
X149427250Y-82936000D01*
X149558000Y-82805250D01*
X149558000Y-81545969D01*
X149478378Y-81353744D01*
X149331256Y-81206622D01*
X149139031Y-81127000D01*
X148769750Y-81127000D01*
X148639000Y-81257750D01*
X148161000Y-81257750D01*
X148030250Y-81127000D01*
X147660969Y-81127000D01*
X147468744Y-81206622D01*
X147321622Y-81353744D01*
X147242000Y-81545969D01*
X147242000Y-82805250D01*
X147372748Y-82935998D01*
X147242000Y-82935998D01*
X147242000Y-83155246D01*
X147100000Y-83127000D01*
X144850000Y-83127000D01*
X144592454Y-83178229D01*
X144488246Y-83247859D01*
X144488246Y-81650000D01*
X144451778Y-81456188D01*
X144337235Y-81278183D01*
X144162463Y-81158766D01*
X143955000Y-81116754D01*
X142685000Y-81116754D01*
X142491188Y-81153222D01*
X142313183Y-81267765D01*
X142193766Y-81442537D01*
X142151754Y-81650000D01*
X142151754Y-84700000D01*
X142188222Y-84893812D01*
X142302765Y-85071817D01*
X142477537Y-85191234D01*
X142597000Y-85215426D01*
X142597000Y-88070000D01*
X142652035Y-88346680D01*
X142808762Y-88581238D01*
X143368893Y-89141370D01*
X143211918Y-89141370D01*
X143211918Y-89272118D01*
X143081170Y-89141370D01*
X142611559Y-89141370D01*
X142419334Y-89220992D01*
X142272212Y-89368114D01*
X142192590Y-89560339D01*
X142192590Y-89801160D01*
X140823636Y-89801160D01*
X139693542Y-88671066D01*
X139733246Y-88475000D01*
X139733246Y-87225000D01*
X139696778Y-87031188D01*
X139582235Y-86853183D01*
X139407463Y-86733766D01*
X139200000Y-86691754D01*
X139173000Y-86691754D01*
X139173000Y-84351140D01*
X139117965Y-84074460D01*
X138961238Y-83839902D01*
X138854872Y-83733536D01*
X139049210Y-83733536D01*
X139243022Y-83697068D01*
X139421027Y-83582525D01*
X139540444Y-83407753D01*
X139582456Y-83200290D01*
X139582456Y-81099710D01*
X139545988Y-80905898D01*
X139431445Y-80727893D01*
X139256673Y-80608476D01*
X139049210Y-80566464D01*
X133448510Y-80566464D01*
X133254698Y-80602932D01*
X133076693Y-80717475D01*
X132957276Y-80892247D01*
X132915264Y-81099710D01*
X132915264Y-83200290D01*
X132951732Y-83394102D01*
X133066275Y-83572107D01*
X133241047Y-83691524D01*
X133448510Y-83733536D01*
X136809920Y-83733536D01*
X137727000Y-84650616D01*
X137727000Y-86691754D01*
X137700000Y-86691754D01*
X137506188Y-86728222D01*
X137328183Y-86842765D01*
X137208766Y-87017537D01*
X137199372Y-87063926D01*
X137143378Y-86928744D01*
X136996256Y-86781622D01*
X136804031Y-86702000D01*
X136319750Y-86702000D01*
X136189000Y-86832750D01*
X136189000Y-87611000D01*
X136209000Y-87611000D01*
X136209000Y-88089000D01*
X136189000Y-88089000D01*
X136189000Y-88109000D01*
X135711000Y-88109000D01*
X135711000Y-88089000D01*
X134807750Y-88089000D01*
X134677000Y-88219750D01*
X134677000Y-88454524D01*
X134173000Y-87950524D01*
X134173000Y-87120969D01*
X134677000Y-87120969D01*
X134677000Y-87480250D01*
X134807750Y-87611000D01*
X135711000Y-87611000D01*
X135711000Y-86832750D01*
X135580250Y-86702000D01*
X135095969Y-86702000D01*
X134903744Y-86781622D01*
X134756622Y-86928744D01*
X134677000Y-87120969D01*
X134173000Y-87120969D01*
X134173000Y-85250000D01*
X134117965Y-84973320D01*
X133961238Y-84738762D01*
X130861238Y-81638762D01*
X130626680Y-81482035D01*
X130350000Y-81427000D01*
X129884736Y-81427000D01*
X129884736Y-81099710D01*
X129848268Y-80905898D01*
X129733725Y-80727893D01*
X129558953Y-80608476D01*
X129351490Y-80566464D01*
X123750790Y-80566464D01*
X123556978Y-80602932D01*
X123378973Y-80717475D01*
X123259556Y-80892247D01*
X123217544Y-81099710D01*
X123217544Y-83200290D01*
X123254012Y-83394102D01*
X123368555Y-83572107D01*
X123543327Y-83691524D01*
X123750790Y-83733536D01*
X129351490Y-83733536D01*
X129545302Y-83697068D01*
X129723307Y-83582525D01*
X129842724Y-83407753D01*
X129884736Y-83200290D01*
X129884736Y-82873000D01*
X130050524Y-82873000D01*
X132727000Y-85549476D01*
X132727000Y-88204524D01*
X131261238Y-86738762D01*
X131026680Y-86582035D01*
X130750000Y-86527000D01*
X126976688Y-86527000D01*
X126956778Y-86421188D01*
X126842235Y-86243183D01*
X126667463Y-86123766D01*
X126460000Y-86081754D01*
X123410000Y-86081754D01*
X123216188Y-86118222D01*
X123038183Y-86232765D01*
X122918766Y-86407537D01*
X122876754Y-86615000D01*
X122876754Y-87885000D01*
X122913222Y-88078812D01*
X123027765Y-88256817D01*
X123202537Y-88376234D01*
X123410000Y-88418246D01*
X126460000Y-88418246D01*
X126653812Y-88381778D01*
X126831817Y-88267235D01*
X126951234Y-88092463D01*
X126975426Y-87973000D01*
X130450524Y-87973000D01*
X131927000Y-89449476D01*
X131927000Y-90254523D01*
X131191238Y-89518762D01*
X130956680Y-89362035D01*
X130680000Y-89307000D01*
X123943246Y-89307000D01*
X123943246Y-89155000D01*
X123906778Y-88961188D01*
X123792235Y-88783183D01*
X123617463Y-88663766D01*
X123410000Y-88621754D01*
X120360000Y-88621754D01*
X120166188Y-88658222D01*
X119988183Y-88772765D01*
X119868766Y-88947537D01*
X119826754Y-89155000D01*
X119165000Y-89155000D01*
X119165000Y-78477000D01*
X168841286Y-78477000D01*
X168841286Y-82073000D01*
X178958714Y-82073000D01*
X178958714Y-78477000D01*
X168841286Y-78477000D01*
X119165000Y-78477000D01*
X119165000Y-77015000D01*
X179285018Y-77015000D01*
X179334981Y-117534988D01*
X179334981Y-117534988D01*
G37*
X179334981Y-117534988D02*
X119165000Y-117485012D01*
X119165000Y-104769750D01*
X121622000Y-104769750D01*
X121622000Y-105254031D01*
X121701622Y-105446256D01*
X121848744Y-105593378D01*
X122040969Y-105673000D01*
X122400250Y-105673000D01*
X122531000Y-105542250D01*
X122531000Y-104639000D01*
X123009000Y-104639000D01*
X123009000Y-105542250D01*
X123139750Y-105673000D01*
X123499031Y-105673000D01*
X123691256Y-105593378D01*
X123838378Y-105446256D01*
X123918000Y-105254031D01*
X123918000Y-104769750D01*
X123787250Y-104639000D01*
X123009000Y-104639000D01*
X122531000Y-104639000D01*
X121752750Y-104639000D01*
X121622000Y-104769750D01*
X119165000Y-104769750D01*
X119165000Y-92699750D01*
X122887000Y-92699750D01*
X122887000Y-93069031D01*
X122966622Y-93261256D01*
X123113744Y-93408378D01*
X123305969Y-93488000D01*
X124565250Y-93488000D01*
X124696000Y-93357250D01*
X124696000Y-92569000D01*
X125174000Y-92569000D01*
X125174000Y-93357250D01*
X125304750Y-93488000D01*
X126564031Y-93488000D01*
X126756256Y-93408378D01*
X126903378Y-93261256D01*
X126983000Y-93069031D01*
X126983000Y-92699750D01*
X126852250Y-92569000D01*
X125174000Y-92569000D01*
X124696000Y-92569000D01*
X123017750Y-92569000D01*
X122887000Y-92699750D01*
X119165000Y-92699750D01*
X119165000Y-91590969D01*
X122887000Y-91590969D01*
X122887000Y-91960250D01*
X123017750Y-92091000D01*
X124696000Y-92091000D01*
X124696000Y-91302750D01*
X125174000Y-91302750D01*
X125174000Y-92091000D01*
X126852250Y-92091000D01*
X126983000Y-91960250D01*
X126983000Y-91590969D01*
X126903378Y-91398744D01*
X126756256Y-91251622D01*
X126564031Y-91172000D01*
X125304750Y-91172000D01*
X125174000Y-91302750D01*
X124696000Y-91302750D01*
X124565250Y-91172000D01*
X123305969Y-91172000D01*
X123113744Y-91251622D01*
X122966622Y-91398744D01*
X122887000Y-91590969D01*
X119165000Y-91590969D01*
X119165000Y-89155000D01*
X119826754Y-89155000D01*
X119826754Y-90425000D01*
X119863222Y-90618812D01*
X119977765Y-90796817D01*
X120152537Y-90916234D01*
X120360000Y-90958246D01*
X123410000Y-90958246D01*
X123603812Y-90921778D01*
X123781817Y-90807235D01*
X123818874Y-90753000D01*
X130380524Y-90753000D01*
X131177000Y-91549477D01*
X131177000Y-100750000D01*
X131232035Y-101026680D01*
X131388762Y-101261238D01*
X132838762Y-102711238D01*
X133073320Y-102867965D01*
X133350000Y-102923000D01*
X139600000Y-102923000D01*
X139876680Y-102867965D01*
X140111238Y-102711238D01*
X141411238Y-101411238D01*
X141567965Y-101176680D01*
X141623000Y-100900000D01*
X141623000Y-98497000D01*
X142561286Y-98497000D01*
X142561286Y-102093000D01*
X146678715Y-102093000D01*
X146678715Y-98497000D01*
X142561286Y-98497000D01*
X141623000Y-98497000D01*
X141623000Y-96099476D01*
X141923636Y-95798840D01*
X142182344Y-95798840D01*
X142182344Y-95935630D01*
X142218812Y-96129442D01*
X142333355Y-96307447D01*
X142508127Y-96426864D01*
X142715590Y-96468876D01*
X144186250Y-96468876D01*
X144291457Y-96449080D01*
X144846604Y-96449080D01*
X147438762Y-99041238D01*
X147673320Y-99197965D01*
X147950000Y-99253000D01*
X149050524Y-99253000D01*
X149487000Y-99689476D01*
X149487000Y-107250000D01*
X149542035Y-107526680D01*
X149698762Y-107761238D01*
X150168762Y-108231238D01*
X150403319Y-108387965D01*
X150449223Y-108397096D01*
X150458544Y-108398950D01*
X150463222Y-108423812D01*
X150577765Y-108601817D01*
X150752537Y-108721234D01*
X150960000Y-108763246D01*
X154410000Y-108763246D01*
X154603812Y-108726778D01*
X154781817Y-108612235D01*
X154901234Y-108437463D01*
X154943246Y-108230000D01*
X154943246Y-107210000D01*
X154906778Y-107016188D01*
X154792235Y-106838183D01*
X154617463Y-106718766D01*
X154410000Y-106676754D01*
X150960000Y-106676754D01*
X150933000Y-106681834D01*
X150933000Y-106217778D01*
X150960000Y-106223246D01*
X154410000Y-106223246D01*
X154603812Y-106186778D01*
X154781817Y-106072235D01*
X154901234Y-105897463D01*
X154906833Y-105869815D01*
X155016680Y-105847965D01*
X155251238Y-105691238D01*
X155620000Y-105322476D01*
X155838762Y-105541238D01*
X155876754Y-105566624D01*
X155876754Y-105690000D01*
X155913222Y-105883812D01*
X156027765Y-106061817D01*
X156202537Y-106181234D01*
X156410000Y-106223246D01*
X158609278Y-106223246D01*
X158155770Y-106676754D01*
X156410000Y-106676754D01*
X156216188Y-106713222D01*
X156038183Y-106827765D01*
X155918766Y-107002537D01*
X155876754Y-107210000D01*
X155876754Y-108230000D01*
X155913222Y-108423812D01*
X156027765Y-108601817D01*
X156202537Y-108721234D01*
X156410000Y-108763246D01*
X159860000Y-108763246D01*
X160053812Y-108726778D01*
X160231817Y-108612235D01*
X160351234Y-108437463D01*
X160393246Y-108230000D01*
X160393246Y-107262626D01*
X160416680Y-107257965D01*
X160651238Y-107101238D01*
X161561238Y-106191238D01*
X161717965Y-105956681D01*
X161736791Y-105862035D01*
X161773000Y-105680000D01*
X161773000Y-101710000D01*
X161717965Y-101433320D01*
X161561238Y-101198762D01*
X159621238Y-99258762D01*
X159386680Y-99102035D01*
X159110000Y-99047000D01*
X157459476Y-99047000D01*
X151676598Y-93264122D01*
X151442040Y-93107395D01*
X151165360Y-93052360D01*
X150337220Y-93052360D01*
X150436358Y-92986118D01*
X151649476Y-91773000D01*
X151700524Y-91773000D01*
X152027000Y-92099476D01*
X152027000Y-93000000D01*
X152082035Y-93276680D01*
X152238762Y-93511238D01*
X154238762Y-95511238D01*
X154473320Y-95667965D01*
X154750000Y-95723000D01*
X155185194Y-95723000D01*
X155203222Y-95818812D01*
X155317765Y-95996817D01*
X155492537Y-96116234D01*
X155700000Y-96158246D01*
X156908477Y-96158246D01*
X156932035Y-96276680D01*
X157088762Y-96511238D01*
X157588762Y-97011238D01*
X157823320Y-97167965D01*
X158100000Y-97223000D01*
X159800524Y-97223000D01*
X163157140Y-100579616D01*
X163157140Y-101266324D01*
X163081310Y-101266324D01*
X162887498Y-101302792D01*
X162709493Y-101417335D01*
X162590076Y-101592107D01*
X162548064Y-101799570D01*
X162548064Y-103600430D01*
X162584532Y-103794242D01*
X162699075Y-103972247D01*
X162873847Y-104091664D01*
X163057140Y-104128781D01*
X163057140Y-106438962D01*
X160328051Y-109168051D01*
X160203736Y-109354102D01*
X160156256Y-109306622D01*
X159964031Y-109227000D01*
X158504750Y-109227000D01*
X158374000Y-109357750D01*
X158374000Y-110021000D01*
X158394000Y-110021000D01*
X158394000Y-110499000D01*
X158374000Y-110499000D01*
X158374000Y-111162250D01*
X158504750Y-111293000D01*
X159813102Y-111293000D01*
X159639102Y-111467000D01*
X155055898Y-111467000D01*
X154757062Y-111168164D01*
X154781817Y-111152235D01*
X154901234Y-110977463D01*
X154943246Y-110770000D01*
X154943246Y-110629750D01*
X155887000Y-110629750D01*
X155887000Y-110874031D01*
X155966622Y-111066256D01*
X156113744Y-111213378D01*
X156305969Y-111293000D01*
X157765250Y-111293000D01*
X157896000Y-111162250D01*
X157896000Y-110499000D01*
X156017750Y-110499000D01*
X155887000Y-110629750D01*
X154943246Y-110629750D01*
X154943246Y-109750000D01*
X154923672Y-109645969D01*
X155887000Y-109645969D01*
X155887000Y-109890250D01*
X156017750Y-110021000D01*
X157896000Y-110021000D01*
X157896000Y-109357750D01*
X157765250Y-109227000D01*
X156305969Y-109227000D01*
X156113744Y-109306622D01*
X155966622Y-109453744D01*
X155887000Y-109645969D01*
X154923672Y-109645969D01*
X154906778Y-109556188D01*
X154792235Y-109378183D01*
X154617463Y-109258766D01*
X154410000Y-109216754D01*
X150960000Y-109216754D01*
X150766188Y-109253222D01*
X150588183Y-109367765D01*
X150472549Y-109537000D01*
X148579476Y-109537000D01*
X147372943Y-108330467D01*
X147416817Y-108302235D01*
X147536234Y-108127463D01*
X147578246Y-107920000D01*
X147578246Y-106420000D01*
X147541778Y-106226188D01*
X147427235Y-106048183D01*
X147252463Y-105928766D01*
X147206074Y-105919372D01*
X147341256Y-105863378D01*
X147488378Y-105716256D01*
X147568000Y-105524031D01*
X147568000Y-105039750D01*
X147437250Y-104909000D01*
X146659000Y-104909000D01*
X146659000Y-104929000D01*
X146181000Y-104929000D01*
X146181000Y-104909000D01*
X145402750Y-104909000D01*
X145272000Y-105039750D01*
X145272000Y-105099523D01*
X144701238Y-104528762D01*
X144466680Y-104372035D01*
X144190000Y-104317000D01*
X143678000Y-104317000D01*
X143678000Y-104159750D01*
X143547250Y-104029000D01*
X142769000Y-104029000D01*
X142769000Y-104049000D01*
X142291000Y-104049000D01*
X142291000Y-104029000D01*
X141512750Y-104029000D01*
X141382000Y-104159750D01*
X141382000Y-104317000D01*
X141360000Y-104317000D01*
X141129223Y-104362904D01*
X141083319Y-104372035D01*
X140848762Y-104528762D01*
X137860524Y-107517000D01*
X127959476Y-107517000D01*
X126253000Y-105810524D01*
X126253000Y-103167000D01*
X127538428Y-103167000D01*
X127538428Y-106763000D01*
X138441572Y-106763000D01*
X138441572Y-103815969D01*
X145272000Y-103815969D01*
X145272000Y-104300250D01*
X145402750Y-104431000D01*
X146181000Y-104431000D01*
X146181000Y-103527750D01*
X146659000Y-103527750D01*
X146659000Y-104431000D01*
X147437250Y-104431000D01*
X147568000Y-104300250D01*
X147568000Y-103815969D01*
X147488378Y-103623744D01*
X147341256Y-103476622D01*
X147149031Y-103397000D01*
X146789750Y-103397000D01*
X146659000Y-103527750D01*
X146181000Y-103527750D01*
X146050250Y-103397000D01*
X145690969Y-103397000D01*
X145498744Y-103476622D01*
X145351622Y-103623744D01*
X145272000Y-103815969D01*
X138441572Y-103815969D01*
X138441572Y-103167000D01*
X127538428Y-103167000D01*
X126253000Y-103167000D01*
X126253000Y-102935969D01*
X141382000Y-102935969D01*
X141382000Y-103420250D01*
X141512750Y-103551000D01*
X142291000Y-103551000D01*
X142291000Y-102647750D01*
X142769000Y-102647750D01*
X142769000Y-103551000D01*
X143547250Y-103551000D01*
X143678000Y-103420250D01*
X143678000Y-102935969D01*
X143598378Y-102743744D01*
X143451256Y-102596622D01*
X143259031Y-102517000D01*
X142899750Y-102517000D01*
X142769000Y-102647750D01*
X142291000Y-102647750D01*
X142160250Y-102517000D01*
X141800969Y-102517000D01*
X141608744Y-102596622D01*
X141461622Y-102743744D01*
X141382000Y-102935969D01*
X126253000Y-102935969D01*
X126253000Y-96080000D01*
X126197965Y-95803320D01*
X126197965Y-95803319D01*
X126041238Y-95568762D01*
X124831238Y-94358762D01*
X124596680Y-94202035D01*
X124320000Y-94147000D01*
X123926688Y-94147000D01*
X123906778Y-94041188D01*
X123792235Y-93863183D01*
X123617463Y-93743766D01*
X123410000Y-93701754D01*
X120360000Y-93701754D01*
X120166188Y-93738222D01*
X119988183Y-93852765D01*
X119868766Y-94027537D01*
X119826754Y-94235000D01*
X119826754Y-95505000D01*
X119863222Y-95698812D01*
X119977765Y-95876817D01*
X120152537Y-95996234D01*
X120360000Y-96038246D01*
X123410000Y-96038246D01*
X123603812Y-96001778D01*
X123781817Y-95887235D01*
X123901234Y-95712463D01*
X123925426Y-95593000D01*
X124020524Y-95593000D01*
X124807000Y-96379476D01*
X124807000Y-101784524D01*
X124411238Y-101388762D01*
X124176680Y-101232035D01*
X123928246Y-101182618D01*
X123928246Y-101150000D01*
X123891778Y-100956188D01*
X123777235Y-100778183D01*
X123602463Y-100658766D01*
X123395000Y-100616754D01*
X122145000Y-100616754D01*
X121951188Y-100653222D01*
X121773183Y-100767765D01*
X121653766Y-100942537D01*
X121611754Y-101150000D01*
X121611754Y-102650000D01*
X121648222Y-102843812D01*
X121762765Y-103021817D01*
X121937537Y-103141234D01*
X121983926Y-103150628D01*
X121848744Y-103206622D01*
X121701622Y-103353744D01*
X121622000Y-103545969D01*
X121622000Y-104030250D01*
X121752750Y-104161000D01*
X122531000Y-104161000D01*
X122531000Y-104141000D01*
X123009000Y-104141000D01*
X123009000Y-104161000D01*
X123787250Y-104161000D01*
X123918000Y-104030250D01*
X123918000Y-103545969D01*
X123838378Y-103353744D01*
X123691256Y-103206622D01*
X123559909Y-103152216D01*
X123588812Y-103146778D01*
X123766817Y-103032235D01*
X123865432Y-102887908D01*
X124807000Y-103829476D01*
X124807000Y-106110000D01*
X124862035Y-106386680D01*
X125018762Y-106621238D01*
X127148762Y-108751238D01*
X127383320Y-108907965D01*
X127660000Y-108963000D01*
X131804524Y-108963000D01*
X130891735Y-109875789D01*
X130822626Y-109889536D01*
X130409450Y-110165611D01*
X130133375Y-110578787D01*
X130036430Y-111066161D01*
X130036430Y-112133839D01*
X130133375Y-112621213D01*
X130409450Y-113034389D01*
X130822626Y-113310464D01*
X131310000Y-113407409D01*
X131797374Y-113310464D01*
X132210550Y-113034389D01*
X132486625Y-112621213D01*
X132576430Y-112169734D01*
X132576430Y-112338110D01*
X132764836Y-112807291D01*
X133118448Y-113168658D01*
X133418252Y-113297264D01*
X133611000Y-113216659D01*
X133611000Y-111839000D01*
X133591000Y-111839000D01*
X133591000Y-111361000D01*
X133611000Y-111361000D01*
X133611000Y-109983341D01*
X133418252Y-109902736D01*
X133118448Y-110031342D01*
X132764836Y-110392709D01*
X132576430Y-110861890D01*
X132576430Y-111030266D01*
X132486625Y-110578787D01*
X132385313Y-110427163D01*
X133849476Y-108963000D01*
X138160000Y-108963000D01*
X138436680Y-108907965D01*
X138671238Y-108751238D01*
X141371754Y-106050722D01*
X141371754Y-107040000D01*
X141408222Y-107233812D01*
X141522765Y-107411817D01*
X141697537Y-107531234D01*
X141707000Y-107533150D01*
X141707000Y-107559102D01*
X141609102Y-107657000D01*
X141290000Y-107657000D01*
X140975052Y-107719647D01*
X140956512Y-107732035D01*
X140708051Y-107898051D01*
X139728051Y-108878051D01*
X139549647Y-109145051D01*
X139530690Y-109240353D01*
X139487000Y-109460000D01*
X139487000Y-110440000D01*
X139549647Y-110754949D01*
X139564381Y-110777000D01*
X137606052Y-110777000D01*
X137566625Y-110578787D01*
X137290550Y-110165611D01*
X136877374Y-109889536D01*
X136390000Y-109792591D01*
X135902626Y-109889536D01*
X135489450Y-110165611D01*
X135213375Y-110578787D01*
X135123570Y-111030266D01*
X135123570Y-110861890D01*
X134935164Y-110392709D01*
X134581552Y-110031342D01*
X134281748Y-109902736D01*
X134089000Y-109983341D01*
X134089000Y-111361000D01*
X134109000Y-111361000D01*
X134109000Y-111839000D01*
X134089000Y-111839000D01*
X134089000Y-113216659D01*
X134281748Y-113297264D01*
X134581552Y-113168658D01*
X134935164Y-112807291D01*
X135123570Y-112338110D01*
X135123570Y-112169734D01*
X135213375Y-112621213D01*
X135489450Y-113034389D01*
X135902626Y-113310464D01*
X136390000Y-113407409D01*
X136877374Y-113310464D01*
X137290550Y-113034389D01*
X137566625Y-112621213D01*
X137606052Y-112423000D01*
X142885126Y-112423000D01*
X142928765Y-112490817D01*
X142939808Y-112498363D01*
X142939183Y-112498765D01*
X142819766Y-112673537D01*
X142777754Y-112881000D01*
X142777754Y-113897000D01*
X142814222Y-114090812D01*
X142928765Y-114268817D01*
X143103537Y-114388234D01*
X143311000Y-114430246D01*
X145089000Y-114430246D01*
X145282812Y-114393778D01*
X145460817Y-114279235D01*
X145506757Y-114212000D01*
X145708102Y-114212000D01*
X146718051Y-115221949D01*
X146985051Y-115400353D01*
X147300000Y-115463000D01*
X160150000Y-115463000D01*
X160464949Y-115400353D01*
X160525715Y-115359750D01*
X162522000Y-115359750D01*
X162522000Y-115844031D01*
X162601622Y-116036256D01*
X162748744Y-116183378D01*
X162940969Y-116263000D01*
X163300250Y-116263000D01*
X163431000Y-116132250D01*
X163431000Y-115229000D01*
X163909000Y-115229000D01*
X163909000Y-116132250D01*
X164039750Y-116263000D01*
X164399031Y-116263000D01*
X164591256Y-116183378D01*
X164738378Y-116036256D01*
X164818000Y-115844031D01*
X164818000Y-115359750D01*
X164687250Y-115229000D01*
X163909000Y-115229000D01*
X163431000Y-115229000D01*
X162652750Y-115229000D01*
X162522000Y-115359750D01*
X160525715Y-115359750D01*
X160731949Y-115221949D01*
X162543766Y-113410132D01*
X162548222Y-113433812D01*
X162662765Y-113611817D01*
X162837537Y-113731234D01*
X162883926Y-113740628D01*
X162748744Y-113796622D01*
X162601622Y-113943744D01*
X162522000Y-114135969D01*
X162522000Y-114620250D01*
X162652750Y-114751000D01*
X163431000Y-114751000D01*
X163431000Y-114731000D01*
X163909000Y-114731000D01*
X163909000Y-114751000D01*
X164687250Y-114751000D01*
X164818000Y-114620250D01*
X164818000Y-114542702D01*
X170795295Y-114542702D01*
X170940123Y-114790130D01*
X171614093Y-114998150D01*
X172316366Y-114932417D01*
X172659877Y-114790130D01*
X172804705Y-114542702D01*
X171800000Y-113537997D01*
X170795295Y-114542702D01*
X164818000Y-114542702D01*
X164818000Y-114135969D01*
X164738378Y-113943744D01*
X164591256Y-113796622D01*
X164459909Y-113742216D01*
X164488812Y-113736778D01*
X164666817Y-113622235D01*
X164786234Y-113447463D01*
X164814448Y-113308137D01*
X165104949Y-113250353D01*
X165371949Y-113071949D01*
X165429805Y-113014093D01*
X170001850Y-113014093D01*
X170067583Y-113716366D01*
X170209870Y-114059877D01*
X170457298Y-114204705D01*
X171462003Y-113200000D01*
X172137997Y-113200000D01*
X173142702Y-114204705D01*
X173390130Y-114059877D01*
X173598150Y-113385907D01*
X173532417Y-112683634D01*
X173390130Y-112340123D01*
X173142702Y-112195295D01*
X172137997Y-113200000D01*
X171462003Y-113200000D01*
X170457298Y-112195295D01*
X170209870Y-112340123D01*
X170001850Y-113014093D01*
X165429805Y-113014093D01*
X166586600Y-111857298D01*
X170795295Y-111857298D01*
X171800000Y-112862003D01*
X172804705Y-111857298D01*
X172659877Y-111609870D01*
X171985907Y-111401850D01*
X171283634Y-111467583D01*
X170940123Y-111609870D01*
X170795295Y-111857298D01*
X166586600Y-111857298D01*
X169420898Y-109023000D01*
X170221668Y-109023000D01*
X170296047Y-109203012D01*
X170794365Y-109702200D01*
X171445781Y-109972691D01*
X172151124Y-109973307D01*
X172803012Y-109703953D01*
X173302200Y-109205635D01*
X173572691Y-108554219D01*
X173573307Y-107848876D01*
X173303953Y-107196988D01*
X172805635Y-106697800D01*
X172154219Y-106427309D01*
X171448876Y-106426693D01*
X170796988Y-106696047D01*
X170297800Y-107194365D01*
X170221963Y-107377000D01*
X169080000Y-107377000D01*
X168765052Y-107439647D01*
X168634798Y-107526680D01*
X168498051Y-107618051D01*
X164704910Y-111411192D01*
X164677235Y-111368183D01*
X164502463Y-111248766D01*
X164295000Y-111206754D01*
X163045000Y-111206754D01*
X162851188Y-111243222D01*
X162673183Y-111357765D01*
X162553766Y-111532537D01*
X162526537Y-111667000D01*
X162300000Y-111667000D01*
X161985051Y-111729647D01*
X161718051Y-111908051D01*
X159809102Y-113817000D01*
X147640898Y-113817000D01*
X146630949Y-112807051D01*
X146363949Y-112628647D01*
X146049000Y-112566000D01*
X145507796Y-112566000D01*
X145471235Y-112509183D01*
X145460192Y-112501637D01*
X145460817Y-112501235D01*
X145580234Y-112326463D01*
X145622246Y-112119000D01*
X145622246Y-111103000D01*
X145585778Y-110909188D01*
X145471235Y-110731183D01*
X145296463Y-110611766D01*
X145089000Y-110569754D01*
X143311000Y-110569754D01*
X143117188Y-110606222D01*
X142939183Y-110720765D01*
X142900759Y-110777000D01*
X141810898Y-110777000D01*
X141133000Y-110099102D01*
X141133000Y-109800898D01*
X141630898Y-109303000D01*
X141950000Y-109303000D01*
X142264949Y-109240353D01*
X142531949Y-109061949D01*
X143111949Y-108481949D01*
X143290353Y-108214949D01*
X143353000Y-107900000D01*
X143353000Y-107534083D01*
X143526817Y-107422235D01*
X143646234Y-107247463D01*
X143688246Y-107040000D01*
X143688246Y-105763000D01*
X143890524Y-105763000D01*
X144097000Y-105969477D01*
X144097000Y-106530000D01*
X144152035Y-106806680D01*
X144308762Y-107041238D01*
X144948762Y-107681238D01*
X145183320Y-107837965D01*
X145261754Y-107853566D01*
X145261754Y-107920000D01*
X145298222Y-108113812D01*
X145412765Y-108291817D01*
X145587537Y-108411234D01*
X145703923Y-108434803D01*
X145752035Y-108676680D01*
X145908762Y-108911238D01*
X147768762Y-110771238D01*
X148003320Y-110927965D01*
X148280000Y-110983000D01*
X150475569Y-110983000D01*
X150577765Y-111141817D01*
X150752537Y-111261234D01*
X150960000Y-111303246D01*
X152564348Y-111303246D01*
X154133051Y-112871949D01*
X154400051Y-113050353D01*
X154715000Y-113113000D01*
X159980000Y-113113000D01*
X160294949Y-113050353D01*
X160561949Y-112871949D01*
X161491949Y-111941949D01*
X161670353Y-111674949D01*
X161733000Y-111360000D01*
X161733000Y-110090898D01*
X164462089Y-107361809D01*
X164563524Y-107210000D01*
X164640493Y-107094808D01*
X164703140Y-106779860D01*
X164703140Y-104129128D01*
X164872782Y-104097208D01*
X165050787Y-103982665D01*
X165170204Y-103807893D01*
X165212216Y-103600430D01*
X165212216Y-101799570D01*
X165387784Y-101799570D01*
X165387784Y-103600430D01*
X165424252Y-103794242D01*
X165538795Y-103972247D01*
X165713567Y-104091664D01*
X165921030Y-104133676D01*
X167518690Y-104133676D01*
X167712502Y-104097208D01*
X167890507Y-103982665D01*
X168009924Y-103807893D01*
X168051936Y-103600430D01*
X168051936Y-103423000D01*
X168380490Y-103423000D01*
X168403222Y-103543812D01*
X168517765Y-103721817D01*
X168692537Y-103841234D01*
X168900000Y-103883246D01*
X170400000Y-103883246D01*
X170593812Y-103846778D01*
X170771817Y-103732235D01*
X170891234Y-103557463D01*
X170933246Y-103350000D01*
X170933246Y-103069750D01*
X171077000Y-103069750D01*
X171077000Y-103454031D01*
X171156622Y-103646256D01*
X171303744Y-103793378D01*
X171495969Y-103873000D01*
X171980250Y-103873000D01*
X172111000Y-103742250D01*
X172111000Y-102939000D01*
X172589000Y-102939000D01*
X172589000Y-103742250D01*
X172719750Y-103873000D01*
X173204031Y-103873000D01*
X173396256Y-103793378D01*
X173543378Y-103646256D01*
X173623000Y-103454031D01*
X173623000Y-103069750D01*
X173492250Y-102939000D01*
X172589000Y-102939000D01*
X172111000Y-102939000D01*
X171207750Y-102939000D01*
X171077000Y-103069750D01*
X170933246Y-103069750D01*
X170933246Y-102050000D01*
X170913672Y-101945969D01*
X171077000Y-101945969D01*
X171077000Y-102330250D01*
X171207750Y-102461000D01*
X172111000Y-102461000D01*
X172111000Y-101657750D01*
X172589000Y-101657750D01*
X172589000Y-102461000D01*
X173492250Y-102461000D01*
X173623000Y-102330250D01*
X173623000Y-101945969D01*
X173543378Y-101753744D01*
X173396256Y-101606622D01*
X173204031Y-101527000D01*
X172719750Y-101527000D01*
X172589000Y-101657750D01*
X172111000Y-101657750D01*
X171980250Y-101527000D01*
X171495969Y-101527000D01*
X171303744Y-101606622D01*
X171156622Y-101753744D01*
X171077000Y-101945969D01*
X170913672Y-101945969D01*
X170896778Y-101856188D01*
X170782235Y-101678183D01*
X170607463Y-101558766D01*
X170400000Y-101516754D01*
X168900000Y-101516754D01*
X168706188Y-101553222D01*
X168528183Y-101667765D01*
X168408766Y-101842537D01*
X168381537Y-101977000D01*
X168051936Y-101977000D01*
X168051936Y-101799570D01*
X168015468Y-101605758D01*
X167900925Y-101427753D01*
X167726153Y-101308336D01*
X167518690Y-101266324D01*
X165921030Y-101266324D01*
X165727218Y-101302792D01*
X165549213Y-101417335D01*
X165429796Y-101592107D01*
X165387784Y-101799570D01*
X165212216Y-101799570D01*
X165175748Y-101605758D01*
X165061205Y-101427753D01*
X164886433Y-101308336D01*
X164678970Y-101266324D01*
X164603140Y-101266324D01*
X164603140Y-100280140D01*
X164548105Y-100003460D01*
X164391378Y-99768902D01*
X162902722Y-98280246D01*
X163989000Y-98280246D01*
X164182812Y-98243778D01*
X164360817Y-98129235D01*
X164475084Y-97962000D01*
X164511000Y-97962000D01*
X164787680Y-97906965D01*
X165022238Y-97750238D01*
X166599476Y-96173000D01*
X166780349Y-96173000D01*
X166896047Y-96453012D01*
X167394365Y-96952200D01*
X168045781Y-97222691D01*
X168751124Y-97223307D01*
X169403012Y-96953953D01*
X169902200Y-96455635D01*
X170172691Y-95804219D01*
X170173307Y-95098876D01*
X169903953Y-94446988D01*
X169405635Y-93947800D01*
X168754219Y-93677309D01*
X168048876Y-93676693D01*
X167396988Y-93946047D01*
X166897800Y-94444365D01*
X166780440Y-94727000D01*
X166300000Y-94727000D01*
X166023320Y-94782035D01*
X165788762Y-94938762D01*
X164369516Y-96358008D01*
X164360192Y-96351637D01*
X164360817Y-96351235D01*
X164480234Y-96176463D01*
X164522246Y-95969000D01*
X164522246Y-94953000D01*
X164485778Y-94759188D01*
X164371235Y-94581183D01*
X164196463Y-94461766D01*
X163989000Y-94419754D01*
X163773000Y-94419754D01*
X163773000Y-93919510D01*
X163893812Y-93896778D01*
X164071817Y-93782235D01*
X164191234Y-93607463D01*
X164233246Y-93400000D01*
X164233246Y-91900000D01*
X164196778Y-91706188D01*
X164082235Y-91528183D01*
X163907463Y-91408766D01*
X163700000Y-91366754D01*
X162400000Y-91366754D01*
X162206188Y-91403222D01*
X162028183Y-91517765D01*
X161908766Y-91692537D01*
X161866754Y-91900000D01*
X161866754Y-93400000D01*
X161903222Y-93593812D01*
X162017765Y-93771817D01*
X162192537Y-93891234D01*
X162327000Y-93918463D01*
X162327000Y-94419754D01*
X162211000Y-94419754D01*
X162017188Y-94456222D01*
X161839183Y-94570765D01*
X161719766Y-94745537D01*
X161677754Y-94953000D01*
X161677754Y-95969000D01*
X161714222Y-96162812D01*
X161828765Y-96340817D01*
X161839808Y-96348363D01*
X161839183Y-96348765D01*
X161719766Y-96523537D01*
X161677754Y-96731000D01*
X161677754Y-97055278D01*
X160611238Y-95988762D01*
X160376680Y-95832035D01*
X160195280Y-95795952D01*
X160223000Y-95729031D01*
X160223000Y-95369750D01*
X160092250Y-95239000D01*
X159189000Y-95239000D01*
X159189000Y-95259000D01*
X158711000Y-95259000D01*
X158711000Y-95239000D01*
X158691000Y-95239000D01*
X158691000Y-94761000D01*
X158711000Y-94761000D01*
X158711000Y-93982750D01*
X159189000Y-93982750D01*
X159189000Y-94761000D01*
X160092250Y-94761000D01*
X160223000Y-94630250D01*
X160223000Y-94270969D01*
X160143378Y-94078744D01*
X159996256Y-93931622D01*
X159804031Y-93852000D01*
X159319750Y-93852000D01*
X159189000Y-93982750D01*
X158711000Y-93982750D01*
X158580250Y-93852000D01*
X158284229Y-93852000D01*
X158330169Y-93783246D01*
X158450000Y-93783246D01*
X158643812Y-93746778D01*
X158821817Y-93632235D01*
X158941234Y-93457463D01*
X158983246Y-93250000D01*
X158983246Y-91950000D01*
X158946778Y-91756188D01*
X158832235Y-91578183D01*
X158657463Y-91458766D01*
X158450000Y-91416754D01*
X158423000Y-91416754D01*
X158423000Y-91383246D01*
X158600000Y-91383246D01*
X158793812Y-91346778D01*
X158971817Y-91232235D01*
X159091234Y-91057463D01*
X159133246Y-90850000D01*
X159133246Y-89550000D01*
X159128166Y-89523000D01*
X160550000Y-89523000D01*
X160826680Y-89467965D01*
X161061238Y-89311238D01*
X161461238Y-88911239D01*
X161617965Y-88676681D01*
X161635453Y-88588762D01*
X161673000Y-88400000D01*
X161673000Y-87650597D01*
X161683246Y-87600000D01*
X161683246Y-86600000D01*
X161660503Y-86479131D01*
X161675226Y-86464408D01*
X161695969Y-86473000D01*
X161930250Y-86473000D01*
X162061000Y-86342250D01*
X162061000Y-85850000D01*
X162041000Y-85850000D01*
X162041000Y-85833246D01*
X162559000Y-85833246D01*
X162559000Y-85850000D01*
X162539000Y-85850000D01*
X162539000Y-86342250D01*
X162669750Y-86473000D01*
X162904031Y-86473000D01*
X163096256Y-86393378D01*
X163177000Y-86312634D01*
X163177000Y-86750000D01*
X163232035Y-87026680D01*
X163388762Y-87261238D01*
X163538762Y-87411238D01*
X163773320Y-87567965D01*
X164050000Y-87623000D01*
X164541754Y-87623000D01*
X164541754Y-87650000D01*
X164578222Y-87843812D01*
X164692765Y-88021817D01*
X164867537Y-88141234D01*
X164977000Y-88163401D01*
X164977000Y-88200524D01*
X164186817Y-88990707D01*
X164082235Y-88828183D01*
X163907463Y-88708766D01*
X163700000Y-88666754D01*
X162400000Y-88666754D01*
X162206188Y-88703222D01*
X162028183Y-88817765D01*
X161908766Y-88992537D01*
X161866754Y-89200000D01*
X161866754Y-90700000D01*
X161903222Y-90893812D01*
X162017765Y-91071817D01*
X162192537Y-91191234D01*
X162400000Y-91233246D01*
X163700000Y-91233246D01*
X163893812Y-91196778D01*
X164071817Y-91082235D01*
X164191234Y-90907463D01*
X164233246Y-90700000D01*
X164233246Y-90673000D01*
X164250000Y-90673000D01*
X164526680Y-90617965D01*
X164761238Y-90461238D01*
X166211238Y-89011238D01*
X166367965Y-88776680D01*
X166423000Y-88500000D01*
X166423000Y-88164806D01*
X166518812Y-88146778D01*
X166696817Y-88032235D01*
X166816234Y-87857463D01*
X166858246Y-87650000D01*
X166858246Y-86150000D01*
X166848838Y-86100000D01*
X168266754Y-86100000D01*
X168266754Y-87600000D01*
X168303222Y-87793812D01*
X168417765Y-87971817D01*
X168592537Y-88091234D01*
X168800000Y-88133246D01*
X170100000Y-88133246D01*
X170293812Y-88096778D01*
X170471817Y-87982235D01*
X170591234Y-87807463D01*
X170633246Y-87600000D01*
X170633246Y-87573000D01*
X170850000Y-87573000D01*
X171126680Y-87517965D01*
X171361238Y-87361238D01*
X171811238Y-86911238D01*
X171967965Y-86676680D01*
X172023000Y-86400000D01*
X172023000Y-85649476D01*
X172138476Y-85534000D01*
X172377856Y-85534000D01*
X172478765Y-85690817D01*
X172489808Y-85698363D01*
X172489183Y-85698765D01*
X172369766Y-85873537D01*
X172327754Y-86081000D01*
X172327754Y-87097000D01*
X172364222Y-87290812D01*
X172478765Y-87468817D01*
X172653537Y-87588234D01*
X172861000Y-87630246D01*
X173027000Y-87630246D01*
X173027000Y-87800524D01*
X172888762Y-87938762D01*
X172732035Y-88173320D01*
X172677000Y-88450000D01*
X172677000Y-93830349D01*
X172396988Y-93946047D01*
X171897800Y-94444365D01*
X171627309Y-95095781D01*
X171626693Y-95801124D01*
X171896047Y-96453012D01*
X172394365Y-96952200D01*
X173045781Y-97222691D01*
X173751124Y-97223307D01*
X174403012Y-96953953D01*
X174902200Y-96455635D01*
X175172691Y-95804219D01*
X175173307Y-95098876D01*
X174903953Y-94446988D01*
X174405635Y-93947800D01*
X174123000Y-93830440D01*
X174123000Y-88749476D01*
X174261238Y-88611238D01*
X174417965Y-88376680D01*
X174473000Y-88100000D01*
X174473000Y-87630246D01*
X174639000Y-87630246D01*
X174832812Y-87593778D01*
X175010817Y-87479235D01*
X175130234Y-87304463D01*
X175172246Y-87097000D01*
X175172246Y-86081000D01*
X175135778Y-85887188D01*
X175021235Y-85709183D01*
X175010192Y-85701637D01*
X175010817Y-85701235D01*
X175130234Y-85526463D01*
X175172246Y-85319000D01*
X175172246Y-84303000D01*
X175135778Y-84109188D01*
X175021235Y-83931183D01*
X174846463Y-83811766D01*
X174639000Y-83769754D01*
X172861000Y-83769754D01*
X172667188Y-83806222D01*
X172489183Y-83920765D01*
X172374916Y-84088000D01*
X171839000Y-84088000D01*
X171562320Y-84143035D01*
X171327762Y-84299762D01*
X170788762Y-84838762D01*
X170632035Y-85073320D01*
X170577000Y-85350000D01*
X170577000Y-85875452D01*
X170482235Y-85728183D01*
X170307463Y-85608766D01*
X170100000Y-85566754D01*
X168800000Y-85566754D01*
X168606188Y-85603222D01*
X168428183Y-85717765D01*
X168308766Y-85892537D01*
X168266754Y-86100000D01*
X166848838Y-86100000D01*
X166821778Y-85956188D01*
X166707235Y-85778183D01*
X166532463Y-85658766D01*
X166495202Y-85651221D01*
X166518812Y-85646778D01*
X166696817Y-85532235D01*
X166816234Y-85357463D01*
X166858246Y-85150000D01*
X166858246Y-85123000D01*
X168322004Y-85123000D01*
X168417765Y-85271817D01*
X168592537Y-85391234D01*
X168800000Y-85433246D01*
X170100000Y-85433246D01*
X170293812Y-85396778D01*
X170471817Y-85282235D01*
X170591234Y-85107463D01*
X170633246Y-84900000D01*
X170633246Y-83400000D01*
X170596778Y-83206188D01*
X170482235Y-83028183D01*
X170307463Y-82908766D01*
X170100000Y-82866754D01*
X168800000Y-82866754D01*
X168606188Y-82903222D01*
X168428183Y-83017765D01*
X168308766Y-83192537D01*
X168266754Y-83400000D01*
X168266754Y-83677000D01*
X166858246Y-83677000D01*
X166858246Y-83650000D01*
X166821778Y-83456188D01*
X166707235Y-83278183D01*
X166532463Y-83158766D01*
X166325000Y-83116754D01*
X165075000Y-83116754D01*
X164881188Y-83153222D01*
X164703183Y-83267765D01*
X164616746Y-83394270D01*
X164511238Y-83288762D01*
X164276680Y-83132035D01*
X164000000Y-83077000D01*
X163323000Y-83077000D01*
X163323000Y-82845969D01*
X163243378Y-82653744D01*
X163096256Y-82506622D01*
X162904031Y-82427000D01*
X162669750Y-82427000D01*
X162539000Y-82557750D01*
X162539000Y-83050000D01*
X162559000Y-83050000D01*
X162559000Y-83066754D01*
X162041000Y-83066754D01*
X162041000Y-83050000D01*
X162061000Y-83050000D01*
X162061000Y-82557750D01*
X161930250Y-82427000D01*
X161695969Y-82427000D01*
X161675226Y-82435592D01*
X161664408Y-82424774D01*
X161673000Y-82404031D01*
X161673000Y-82169750D01*
X161542250Y-82039000D01*
X161050000Y-82039000D01*
X161050000Y-82059000D01*
X160912250Y-82059000D01*
X160892250Y-82039000D01*
X160750000Y-82039000D01*
X160750000Y-81561000D01*
X160892250Y-81561000D01*
X161023000Y-81430250D01*
X161023000Y-81195969D01*
X160943378Y-81003744D01*
X160850000Y-80910366D01*
X160850000Y-80907750D01*
X161050000Y-80907750D01*
X161050000Y-81561000D01*
X161542250Y-81561000D01*
X161673000Y-81430250D01*
X161673000Y-81195969D01*
X161593378Y-81003744D01*
X161446256Y-80856622D01*
X161254031Y-80777000D01*
X161180750Y-80777000D01*
X161050000Y-80907750D01*
X160850000Y-80907750D01*
X160782363Y-80840113D01*
X160999476Y-80623000D01*
X161850524Y-80623000D01*
X162888762Y-81661238D01*
X163123320Y-81817965D01*
X163384618Y-81869940D01*
X163403222Y-81968812D01*
X163517765Y-82146817D01*
X163692537Y-82266234D01*
X163900000Y-82308246D01*
X165400000Y-82308246D01*
X165593812Y-82271778D01*
X165771817Y-82157235D01*
X165891234Y-81982463D01*
X165900628Y-81936074D01*
X165956622Y-82071256D01*
X166103744Y-82218378D01*
X166295969Y-82298000D01*
X166780250Y-82298000D01*
X166911000Y-82167250D01*
X166911000Y-81389000D01*
X167389000Y-81389000D01*
X167389000Y-82167250D01*
X167519750Y-82298000D01*
X168004031Y-82298000D01*
X168196256Y-82218378D01*
X168343378Y-82071256D01*
X168423000Y-81879031D01*
X168423000Y-81519750D01*
X168292250Y-81389000D01*
X167389000Y-81389000D01*
X166911000Y-81389000D01*
X166891000Y-81389000D01*
X166891000Y-80911000D01*
X166911000Y-80911000D01*
X166911000Y-80132750D01*
X167389000Y-80132750D01*
X167389000Y-80911000D01*
X168292250Y-80911000D01*
X168423000Y-80780250D01*
X168423000Y-80420969D01*
X168343378Y-80228744D01*
X168196256Y-80081622D01*
X168004031Y-80002000D01*
X167519750Y-80002000D01*
X167389000Y-80132750D01*
X166911000Y-80132750D01*
X166780250Y-80002000D01*
X166295969Y-80002000D01*
X166103744Y-80081622D01*
X165956622Y-80228744D01*
X165902216Y-80360091D01*
X165896778Y-80331188D01*
X165782235Y-80153183D01*
X165607463Y-80033766D01*
X165400000Y-79991754D01*
X163900000Y-79991754D01*
X163706188Y-80028222D01*
X163528183Y-80142765D01*
X163482338Y-80209862D01*
X162661238Y-79388762D01*
X162426680Y-79232035D01*
X162150000Y-79177000D01*
X154800000Y-79177000D01*
X154523320Y-79232035D01*
X154288762Y-79388762D01*
X152968762Y-80708762D01*
X152812035Y-80943320D01*
X152774914Y-81129942D01*
X152651188Y-81153222D01*
X152473183Y-81267765D01*
X152353766Y-81442537D01*
X152311754Y-81650000D01*
X152311754Y-82502000D01*
X150525000Y-82502000D01*
X150267454Y-82553229D01*
X150049117Y-82699117D01*
X149334234Y-83414000D01*
X148639000Y-83414000D01*
X148639000Y-83434000D01*
X148161000Y-83434000D01*
X148161000Y-83414000D01*
X148141000Y-83414000D01*
X148141000Y-82936000D01*
X148161000Y-82936000D01*
X148161000Y-81257750D01*
X148639000Y-81257750D01*
X148639000Y-82936000D01*
X149427250Y-82936000D01*
X149558000Y-82805250D01*
X149558000Y-81545969D01*
X149478378Y-81353744D01*
X149331256Y-81206622D01*
X149139031Y-81127000D01*
X148769750Y-81127000D01*
X148639000Y-81257750D01*
X148161000Y-81257750D01*
X148030250Y-81127000D01*
X147660969Y-81127000D01*
X147468744Y-81206622D01*
X147321622Y-81353744D01*
X147242000Y-81545969D01*
X147242000Y-82805250D01*
X147372748Y-82935998D01*
X147242000Y-82935998D01*
X147242000Y-83155246D01*
X147100000Y-83127000D01*
X144850000Y-83127000D01*
X144592454Y-83178229D01*
X144488246Y-83247859D01*
X144488246Y-81650000D01*
X144451778Y-81456188D01*
X144337235Y-81278183D01*
X144162463Y-81158766D01*
X143955000Y-81116754D01*
X142685000Y-81116754D01*
X142491188Y-81153222D01*
X142313183Y-81267765D01*
X142193766Y-81442537D01*
X142151754Y-81650000D01*
X142151754Y-84700000D01*
X142188222Y-84893812D01*
X142302765Y-85071817D01*
X142477537Y-85191234D01*
X142597000Y-85215426D01*
X142597000Y-88070000D01*
X142652035Y-88346680D01*
X142808762Y-88581238D01*
X143368893Y-89141370D01*
X143211918Y-89141370D01*
X143211918Y-89272118D01*
X143081170Y-89141370D01*
X142611559Y-89141370D01*
X142419334Y-89220992D01*
X142272212Y-89368114D01*
X142192590Y-89560339D01*
X142192590Y-89801160D01*
X140823636Y-89801160D01*
X139693542Y-88671066D01*
X139733246Y-88475000D01*
X139733246Y-87225000D01*
X139696778Y-87031188D01*
X139582235Y-86853183D01*
X139407463Y-86733766D01*
X139200000Y-86691754D01*
X139173000Y-86691754D01*
X139173000Y-84351140D01*
X139117965Y-84074460D01*
X138961238Y-83839902D01*
X138854872Y-83733536D01*
X139049210Y-83733536D01*
X139243022Y-83697068D01*
X139421027Y-83582525D01*
X139540444Y-83407753D01*
X139582456Y-83200290D01*
X139582456Y-81099710D01*
X139545988Y-80905898D01*
X139431445Y-80727893D01*
X139256673Y-80608476D01*
X139049210Y-80566464D01*
X133448510Y-80566464D01*
X133254698Y-80602932D01*
X133076693Y-80717475D01*
X132957276Y-80892247D01*
X132915264Y-81099710D01*
X132915264Y-83200290D01*
X132951732Y-83394102D01*
X133066275Y-83572107D01*
X133241047Y-83691524D01*
X133448510Y-83733536D01*
X136809920Y-83733536D01*
X137727000Y-84650616D01*
X137727000Y-86691754D01*
X137700000Y-86691754D01*
X137506188Y-86728222D01*
X137328183Y-86842765D01*
X137208766Y-87017537D01*
X137199372Y-87063926D01*
X137143378Y-86928744D01*
X136996256Y-86781622D01*
X136804031Y-86702000D01*
X136319750Y-86702000D01*
X136189000Y-86832750D01*
X136189000Y-87611000D01*
X136209000Y-87611000D01*
X136209000Y-88089000D01*
X136189000Y-88089000D01*
X136189000Y-88109000D01*
X135711000Y-88109000D01*
X135711000Y-88089000D01*
X134807750Y-88089000D01*
X134677000Y-88219750D01*
X134677000Y-88454524D01*
X134173000Y-87950524D01*
X134173000Y-87120969D01*
X134677000Y-87120969D01*
X134677000Y-87480250D01*
X134807750Y-87611000D01*
X135711000Y-87611000D01*
X135711000Y-86832750D01*
X135580250Y-86702000D01*
X135095969Y-86702000D01*
X134903744Y-86781622D01*
X134756622Y-86928744D01*
X134677000Y-87120969D01*
X134173000Y-87120969D01*
X134173000Y-85250000D01*
X134117965Y-84973320D01*
X133961238Y-84738762D01*
X130861238Y-81638762D01*
X130626680Y-81482035D01*
X130350000Y-81427000D01*
X129884736Y-81427000D01*
X129884736Y-81099710D01*
X129848268Y-80905898D01*
X129733725Y-80727893D01*
X129558953Y-80608476D01*
X129351490Y-80566464D01*
X123750790Y-80566464D01*
X123556978Y-80602932D01*
X123378973Y-80717475D01*
X123259556Y-80892247D01*
X123217544Y-81099710D01*
X123217544Y-83200290D01*
X123254012Y-83394102D01*
X123368555Y-83572107D01*
X123543327Y-83691524D01*
X123750790Y-83733536D01*
X129351490Y-83733536D01*
X129545302Y-83697068D01*
X129723307Y-83582525D01*
X129842724Y-83407753D01*
X129884736Y-83200290D01*
X129884736Y-82873000D01*
X130050524Y-82873000D01*
X132727000Y-85549476D01*
X132727000Y-88204524D01*
X131261238Y-86738762D01*
X131026680Y-86582035D01*
X130750000Y-86527000D01*
X126976688Y-86527000D01*
X126956778Y-86421188D01*
X126842235Y-86243183D01*
X126667463Y-86123766D01*
X126460000Y-86081754D01*
X123410000Y-86081754D01*
X123216188Y-86118222D01*
X123038183Y-86232765D01*
X122918766Y-86407537D01*
X122876754Y-86615000D01*
X122876754Y-87885000D01*
X122913222Y-88078812D01*
X123027765Y-88256817D01*
X123202537Y-88376234D01*
X123410000Y-88418246D01*
X126460000Y-88418246D01*
X126653812Y-88381778D01*
X126831817Y-88267235D01*
X126951234Y-88092463D01*
X126975426Y-87973000D01*
X130450524Y-87973000D01*
X131927000Y-89449476D01*
X131927000Y-90254523D01*
X131191238Y-89518762D01*
X130956680Y-89362035D01*
X130680000Y-89307000D01*
X123943246Y-89307000D01*
X123943246Y-89155000D01*
X123906778Y-88961188D01*
X123792235Y-88783183D01*
X123617463Y-88663766D01*
X123410000Y-88621754D01*
X120360000Y-88621754D01*
X120166188Y-88658222D01*
X119988183Y-88772765D01*
X119868766Y-88947537D01*
X119826754Y-89155000D01*
X119165000Y-89155000D01*
X119165000Y-78477000D01*
X168841286Y-78477000D01*
X168841286Y-82073000D01*
X178958714Y-82073000D01*
X178958714Y-78477000D01*
X168841286Y-78477000D01*
X119165000Y-78477000D01*
X119165000Y-77015000D01*
X179285018Y-77015000D01*
X179334981Y-117534988D01*
G36*
X134138762Y-89961238D02*
X134373320Y-90117965D01*
X134618610Y-90166756D01*
X134556622Y-90228744D01*
X134477000Y-90420969D01*
X134477000Y-90780250D01*
X134607750Y-90911000D01*
X135511000Y-90911000D01*
X135511000Y-90891000D01*
X135989000Y-90891000D01*
X135989000Y-90911000D01*
X136009000Y-90911000D01*
X136009000Y-91389000D01*
X135989000Y-91389000D01*
X135989000Y-92167250D01*
X136119750Y-92298000D01*
X136604031Y-92298000D01*
X136796256Y-92218378D01*
X136943378Y-92071256D01*
X136997784Y-91939909D01*
X137003222Y-91968812D01*
X137117765Y-92146817D01*
X137292537Y-92266234D01*
X137500000Y-92308246D01*
X139000000Y-92308246D01*
X139193812Y-92271778D01*
X139371817Y-92157235D01*
X139491234Y-91982463D01*
X139508460Y-91897400D01*
X139880124Y-91897400D01*
X139438762Y-92338762D01*
X139282035Y-92573320D01*
X139233051Y-92819577D01*
X139107463Y-92733766D01*
X138900000Y-92691754D01*
X137400000Y-92691754D01*
X137206188Y-92728222D01*
X137028183Y-92842765D01*
X136908766Y-93017537D01*
X136899372Y-93063926D01*
X136843378Y-92928744D01*
X136696256Y-92781622D01*
X136504031Y-92702000D01*
X136019750Y-92702000D01*
X135889000Y-92832750D01*
X135889000Y-93611000D01*
X135909000Y-93611000D01*
X135909000Y-94089000D01*
X135889000Y-94089000D01*
X135889000Y-94867250D01*
X136019750Y-94998000D01*
X136504031Y-94998000D01*
X136696256Y-94918378D01*
X136843378Y-94771256D01*
X136897784Y-94639909D01*
X136903222Y-94668812D01*
X137017765Y-94846817D01*
X137192537Y-94966234D01*
X137400000Y-95008246D01*
X137569278Y-95008246D01*
X137538762Y-95038762D01*
X137382035Y-95273320D01*
X137327385Y-95548064D01*
X137149570Y-95548064D01*
X136955758Y-95584532D01*
X136777753Y-95699075D01*
X136658336Y-95873847D01*
X136616324Y-96081310D01*
X136616324Y-97678970D01*
X136652792Y-97872782D01*
X136767335Y-98050787D01*
X136942107Y-98170204D01*
X137149570Y-98212216D01*
X138950430Y-98212216D01*
X139144242Y-98175748D01*
X139227000Y-98122495D01*
X139227000Y-98477015D01*
X139157893Y-98429796D01*
X138950430Y-98387784D01*
X137149570Y-98387784D01*
X136955758Y-98424252D01*
X136777753Y-98538795D01*
X136658336Y-98713567D01*
X136616324Y-98921030D01*
X136616324Y-98996860D01*
X135783246Y-98996860D01*
X135783246Y-98900000D01*
X135746778Y-98706188D01*
X135632235Y-98528183D01*
X135457463Y-98408766D01*
X135250000Y-98366754D01*
X133950000Y-98366754D01*
X133756188Y-98403222D01*
X133578183Y-98517765D01*
X133458766Y-98692537D01*
X133416754Y-98900000D01*
X133416754Y-100244278D01*
X133373000Y-100200524D01*
X133373000Y-97319750D01*
X133427000Y-97319750D01*
X133427000Y-97804031D01*
X133506622Y-97996256D01*
X133653744Y-98143378D01*
X133845969Y-98223000D01*
X134230250Y-98223000D01*
X134361000Y-98092250D01*
X134361000Y-97189000D01*
X134839000Y-97189000D01*
X134839000Y-98092250D01*
X134969750Y-98223000D01*
X135354031Y-98223000D01*
X135546256Y-98143378D01*
X135693378Y-97996256D01*
X135773000Y-97804031D01*
X135773000Y-97319750D01*
X135642250Y-97189000D01*
X134839000Y-97189000D01*
X134361000Y-97189000D01*
X133557750Y-97189000D01*
X133427000Y-97319750D01*
X133373000Y-97319750D01*
X133373000Y-96095969D01*
X133427000Y-96095969D01*
X133427000Y-96580250D01*
X133557750Y-96711000D01*
X134361000Y-96711000D01*
X134361000Y-95807750D01*
X134839000Y-95807750D01*
X134839000Y-96711000D01*
X135642250Y-96711000D01*
X135773000Y-96580250D01*
X135773000Y-96095969D01*
X135693378Y-95903744D01*
X135546256Y-95756622D01*
X135354031Y-95677000D01*
X134969750Y-95677000D01*
X134839000Y-95807750D01*
X134361000Y-95807750D01*
X134230250Y-95677000D01*
X133845969Y-95677000D01*
X133653744Y-95756622D01*
X133506622Y-95903744D01*
X133427000Y-96095969D01*
X133373000Y-96095969D01*
X133373000Y-94219750D01*
X134377000Y-94219750D01*
X134377000Y-94579031D01*
X134456622Y-94771256D01*
X134603744Y-94918378D01*
X134795969Y-94998000D01*
X135280250Y-94998000D01*
X135411000Y-94867250D01*
X135411000Y-94089000D01*
X134507750Y-94089000D01*
X134377000Y-94219750D01*
X133373000Y-94219750D01*
X133373000Y-93120969D01*
X134377000Y-93120969D01*
X134377000Y-93480250D01*
X134507750Y-93611000D01*
X135411000Y-93611000D01*
X135411000Y-92832750D01*
X135280250Y-92702000D01*
X134795969Y-92702000D01*
X134603744Y-92781622D01*
X134456622Y-92928744D01*
X134377000Y-93120969D01*
X133373000Y-93120969D01*
X133373000Y-91519750D01*
X134477000Y-91519750D01*
X134477000Y-91879031D01*
X134556622Y-92071256D01*
X134703744Y-92218378D01*
X134895969Y-92298000D01*
X135380250Y-92298000D01*
X135511000Y-92167250D01*
X135511000Y-91389000D01*
X134607750Y-91389000D01*
X134477000Y-91519750D01*
X133373000Y-91519750D01*
X133373000Y-89195476D01*
X134138762Y-89961238D01*
X134138762Y-89961238D01*
G37*
X134138762Y-89961238D02*
X134373320Y-90117965D01*
X134618610Y-90166756D01*
X134556622Y-90228744D01*
X134477000Y-90420969D01*
X134477000Y-90780250D01*
X134607750Y-90911000D01*
X135511000Y-90911000D01*
X135511000Y-90891000D01*
X135989000Y-90891000D01*
X135989000Y-90911000D01*
X136009000Y-90911000D01*
X136009000Y-91389000D01*
X135989000Y-91389000D01*
X135989000Y-92167250D01*
X136119750Y-92298000D01*
X136604031Y-92298000D01*
X136796256Y-92218378D01*
X136943378Y-92071256D01*
X136997784Y-91939909D01*
X137003222Y-91968812D01*
X137117765Y-92146817D01*
X137292537Y-92266234D01*
X137500000Y-92308246D01*
X139000000Y-92308246D01*
X139193812Y-92271778D01*
X139371817Y-92157235D01*
X139491234Y-91982463D01*
X139508460Y-91897400D01*
X139880124Y-91897400D01*
X139438762Y-92338762D01*
X139282035Y-92573320D01*
X139233051Y-92819577D01*
X139107463Y-92733766D01*
X138900000Y-92691754D01*
X137400000Y-92691754D01*
X137206188Y-92728222D01*
X137028183Y-92842765D01*
X136908766Y-93017537D01*
X136899372Y-93063926D01*
X136843378Y-92928744D01*
X136696256Y-92781622D01*
X136504031Y-92702000D01*
X136019750Y-92702000D01*
X135889000Y-92832750D01*
X135889000Y-93611000D01*
X135909000Y-93611000D01*
X135909000Y-94089000D01*
X135889000Y-94089000D01*
X135889000Y-94867250D01*
X136019750Y-94998000D01*
X136504031Y-94998000D01*
X136696256Y-94918378D01*
X136843378Y-94771256D01*
X136897784Y-94639909D01*
X136903222Y-94668812D01*
X137017765Y-94846817D01*
X137192537Y-94966234D01*
X137400000Y-95008246D01*
X137569278Y-95008246D01*
X137538762Y-95038762D01*
X137382035Y-95273320D01*
X137327385Y-95548064D01*
X137149570Y-95548064D01*
X136955758Y-95584532D01*
X136777753Y-95699075D01*
X136658336Y-95873847D01*
X136616324Y-96081310D01*
X136616324Y-97678970D01*
X136652792Y-97872782D01*
X136767335Y-98050787D01*
X136942107Y-98170204D01*
X137149570Y-98212216D01*
X138950430Y-98212216D01*
X139144242Y-98175748D01*
X139227000Y-98122495D01*
X139227000Y-98477015D01*
X139157893Y-98429796D01*
X138950430Y-98387784D01*
X137149570Y-98387784D01*
X136955758Y-98424252D01*
X136777753Y-98538795D01*
X136658336Y-98713567D01*
X136616324Y-98921030D01*
X136616324Y-98996860D01*
X135783246Y-98996860D01*
X135783246Y-98900000D01*
X135746778Y-98706188D01*
X135632235Y-98528183D01*
X135457463Y-98408766D01*
X135250000Y-98366754D01*
X133950000Y-98366754D01*
X133756188Y-98403222D01*
X133578183Y-98517765D01*
X133458766Y-98692537D01*
X133416754Y-98900000D01*
X133416754Y-100244278D01*
X133373000Y-100200524D01*
X133373000Y-97319750D01*
X133427000Y-97319750D01*
X133427000Y-97804031D01*
X133506622Y-97996256D01*
X133653744Y-98143378D01*
X133845969Y-98223000D01*
X134230250Y-98223000D01*
X134361000Y-98092250D01*
X134361000Y-97189000D01*
X134839000Y-97189000D01*
X134839000Y-98092250D01*
X134969750Y-98223000D01*
X135354031Y-98223000D01*
X135546256Y-98143378D01*
X135693378Y-97996256D01*
X135773000Y-97804031D01*
X135773000Y-97319750D01*
X135642250Y-97189000D01*
X134839000Y-97189000D01*
X134361000Y-97189000D01*
X133557750Y-97189000D01*
X133427000Y-97319750D01*
X133373000Y-97319750D01*
X133373000Y-96095969D01*
X133427000Y-96095969D01*
X133427000Y-96580250D01*
X133557750Y-96711000D01*
X134361000Y-96711000D01*
X134361000Y-95807750D01*
X134839000Y-95807750D01*
X134839000Y-96711000D01*
X135642250Y-96711000D01*
X135773000Y-96580250D01*
X135773000Y-96095969D01*
X135693378Y-95903744D01*
X135546256Y-95756622D01*
X135354031Y-95677000D01*
X134969750Y-95677000D01*
X134839000Y-95807750D01*
X134361000Y-95807750D01*
X134230250Y-95677000D01*
X133845969Y-95677000D01*
X133653744Y-95756622D01*
X133506622Y-95903744D01*
X133427000Y-96095969D01*
X133373000Y-96095969D01*
X133373000Y-94219750D01*
X134377000Y-94219750D01*
X134377000Y-94579031D01*
X134456622Y-94771256D01*
X134603744Y-94918378D01*
X134795969Y-94998000D01*
X135280250Y-94998000D01*
X135411000Y-94867250D01*
X135411000Y-94089000D01*
X134507750Y-94089000D01*
X134377000Y-94219750D01*
X133373000Y-94219750D01*
X133373000Y-93120969D01*
X134377000Y-93120969D01*
X134377000Y-93480250D01*
X134507750Y-93611000D01*
X135411000Y-93611000D01*
X135411000Y-92832750D01*
X135280250Y-92702000D01*
X134795969Y-92702000D01*
X134603744Y-92781622D01*
X134456622Y-92928744D01*
X134377000Y-93120969D01*
X133373000Y-93120969D01*
X133373000Y-91519750D01*
X134477000Y-91519750D01*
X134477000Y-91879031D01*
X134556622Y-92071256D01*
X134703744Y-92218378D01*
X134895969Y-92298000D01*
X135380250Y-92298000D01*
X135511000Y-92167250D01*
X135511000Y-91389000D01*
X134607750Y-91389000D01*
X134477000Y-91519750D01*
X133373000Y-91519750D01*
X133373000Y-89195476D01*
X134138762Y-89961238D01*
G36*
X158982035Y-80673320D02*
X158961412Y-80777000D01*
X158695969Y-80777000D01*
X158675000Y-80785686D01*
X158654031Y-80777000D01*
X158580750Y-80777000D01*
X158450000Y-80907750D01*
X158450000Y-80910366D01*
X158356622Y-81003744D01*
X158277000Y-81195969D01*
X158277000Y-81430250D01*
X158407750Y-81561000D01*
X158550000Y-81561000D01*
X158550000Y-82039000D01*
X158407750Y-82039000D01*
X158387750Y-82059000D01*
X158250000Y-82059000D01*
X158250000Y-82039000D01*
X157757750Y-82039000D01*
X157627000Y-82169750D01*
X157627000Y-82404031D01*
X157635592Y-82424774D01*
X157619428Y-82440938D01*
X157500000Y-82416754D01*
X156500000Y-82416754D01*
X156306188Y-82453222D01*
X156128183Y-82567765D01*
X156008766Y-82742537D01*
X155966754Y-82950000D01*
X155966754Y-83350000D01*
X155991138Y-83479589D01*
X155966754Y-83600000D01*
X155966754Y-84000000D01*
X155988841Y-84117382D01*
X155977000Y-84145969D01*
X155977000Y-84219250D01*
X156096463Y-84338713D01*
X156117765Y-84371817D01*
X156232822Y-84450432D01*
X156128183Y-84517765D01*
X156102723Y-84555027D01*
X155977000Y-84680750D01*
X155977000Y-84754031D01*
X155989972Y-84785347D01*
X155966754Y-84900000D01*
X155966754Y-85300000D01*
X155991138Y-85429589D01*
X155966754Y-85550000D01*
X155966754Y-85950000D01*
X156003222Y-86143812D01*
X156117765Y-86321817D01*
X156292537Y-86441234D01*
X156500000Y-86483246D01*
X157500000Y-86483246D01*
X157620869Y-86460503D01*
X157635592Y-86475226D01*
X157627000Y-86495969D01*
X157627000Y-86730250D01*
X157757750Y-86861000D01*
X158250000Y-86861000D01*
X158250000Y-86841000D01*
X158387750Y-86841000D01*
X158407750Y-86861000D01*
X158942250Y-86861000D01*
X158962250Y-86841000D01*
X159037750Y-86841000D01*
X159057750Y-86861000D01*
X159200000Y-86861000D01*
X159200000Y-87339000D01*
X159057750Y-87339000D01*
X159037750Y-87359000D01*
X158962250Y-87359000D01*
X158942250Y-87339000D01*
X158407750Y-87339000D01*
X158387750Y-87359000D01*
X158250000Y-87359000D01*
X158250000Y-87339000D01*
X157757750Y-87339000D01*
X157669750Y-87427000D01*
X156900000Y-87427000D01*
X156623320Y-87482035D01*
X156388762Y-87638762D01*
X155010770Y-89016754D01*
X154400000Y-89016754D01*
X154206188Y-89053222D01*
X154028183Y-89167765D01*
X153908766Y-89342537D01*
X153881537Y-89477000D01*
X153649476Y-89477000D01*
X152973000Y-88800524D01*
X152973000Y-85950000D01*
X152923000Y-85698633D01*
X152923000Y-85233246D01*
X154115000Y-85233246D01*
X154308812Y-85196778D01*
X154486817Y-85082235D01*
X154606234Y-84907463D01*
X154648246Y-84700000D01*
X154648246Y-81650000D01*
X154611778Y-81456188D01*
X154497235Y-81278183D01*
X154465783Y-81256693D01*
X154526507Y-81195969D01*
X157627000Y-81195969D01*
X157627000Y-81430250D01*
X157757750Y-81561000D01*
X158250000Y-81561000D01*
X158250000Y-80907750D01*
X158119250Y-80777000D01*
X158045969Y-80777000D01*
X157853744Y-80856622D01*
X157706622Y-81003744D01*
X157627000Y-81195969D01*
X154526507Y-81195969D01*
X155099476Y-80623000D01*
X159015658Y-80623000D01*
X158982035Y-80673320D01*
X158982035Y-80673320D01*
G37*
X158982035Y-80673320D02*
X158961412Y-80777000D01*
X158695969Y-80777000D01*
X158675000Y-80785686D01*
X158654031Y-80777000D01*
X158580750Y-80777000D01*
X158450000Y-80907750D01*
X158450000Y-80910366D01*
X158356622Y-81003744D01*
X158277000Y-81195969D01*
X158277000Y-81430250D01*
X158407750Y-81561000D01*
X158550000Y-81561000D01*
X158550000Y-82039000D01*
X158407750Y-82039000D01*
X158387750Y-82059000D01*
X158250000Y-82059000D01*
X158250000Y-82039000D01*
X157757750Y-82039000D01*
X157627000Y-82169750D01*
X157627000Y-82404031D01*
X157635592Y-82424774D01*
X157619428Y-82440938D01*
X157500000Y-82416754D01*
X156500000Y-82416754D01*
X156306188Y-82453222D01*
X156128183Y-82567765D01*
X156008766Y-82742537D01*
X155966754Y-82950000D01*
X155966754Y-83350000D01*
X155991138Y-83479589D01*
X155966754Y-83600000D01*
X155966754Y-84000000D01*
X155988841Y-84117382D01*
X155977000Y-84145969D01*
X155977000Y-84219250D01*
X156096463Y-84338713D01*
X156117765Y-84371817D01*
X156232822Y-84450432D01*
X156128183Y-84517765D01*
X156102723Y-84555027D01*
X155977000Y-84680750D01*
X155977000Y-84754031D01*
X155989972Y-84785347D01*
X155966754Y-84900000D01*
X155966754Y-85300000D01*
X155991138Y-85429589D01*
X155966754Y-85550000D01*
X155966754Y-85950000D01*
X156003222Y-86143812D01*
X156117765Y-86321817D01*
X156292537Y-86441234D01*
X156500000Y-86483246D01*
X157500000Y-86483246D01*
X157620869Y-86460503D01*
X157635592Y-86475226D01*
X157627000Y-86495969D01*
X157627000Y-86730250D01*
X157757750Y-86861000D01*
X158250000Y-86861000D01*
X158250000Y-86841000D01*
X158387750Y-86841000D01*
X158407750Y-86861000D01*
X158942250Y-86861000D01*
X158962250Y-86841000D01*
X159037750Y-86841000D01*
X159057750Y-86861000D01*
X159200000Y-86861000D01*
X159200000Y-87339000D01*
X159057750Y-87339000D01*
X159037750Y-87359000D01*
X158962250Y-87359000D01*
X158942250Y-87339000D01*
X158407750Y-87339000D01*
X158387750Y-87359000D01*
X158250000Y-87359000D01*
X158250000Y-87339000D01*
X157757750Y-87339000D01*
X157669750Y-87427000D01*
X156900000Y-87427000D01*
X156623320Y-87482035D01*
X156388762Y-87638762D01*
X155010770Y-89016754D01*
X154400000Y-89016754D01*
X154206188Y-89053222D01*
X154028183Y-89167765D01*
X153908766Y-89342537D01*
X153881537Y-89477000D01*
X153649476Y-89477000D01*
X152973000Y-88800524D01*
X152973000Y-85950000D01*
X152923000Y-85698633D01*
X152923000Y-85233246D01*
X154115000Y-85233246D01*
X154308812Y-85196778D01*
X154486817Y-85082235D01*
X154606234Y-84907463D01*
X154648246Y-84700000D01*
X154648246Y-81650000D01*
X154611778Y-81456188D01*
X154497235Y-81278183D01*
X154465783Y-81256693D01*
X154526507Y-81195969D01*
X157627000Y-81195969D01*
X157627000Y-81430250D01*
X157757750Y-81561000D01*
X158250000Y-81561000D01*
X158250000Y-80907750D01*
X158119250Y-80777000D01*
X158045969Y-80777000D01*
X157853744Y-80856622D01*
X157706622Y-81003744D01*
X157627000Y-81195969D01*
X154526507Y-81195969D01*
X155099476Y-80623000D01*
X159015658Y-80623000D01*
X158982035Y-80673320D01*
G36*
X159889000Y-84211000D02*
X159909000Y-84211000D01*
X159909000Y-84689000D01*
X159889000Y-84689000D01*
X159889000Y-84709000D01*
X159411000Y-84709000D01*
X159411000Y-84689000D01*
X159391000Y-84689000D01*
X159391000Y-84211000D01*
X159411000Y-84211000D01*
X159411000Y-84191000D01*
X159889000Y-84191000D01*
X159889000Y-84211000D01*
X159889000Y-84211000D01*
G37*
X159889000Y-84211000D02*
X159909000Y-84211000D01*
X159909000Y-84689000D01*
X159889000Y-84689000D01*
X159889000Y-84709000D01*
X159411000Y-84709000D01*
X159411000Y-84689000D01*
X159391000Y-84689000D01*
X159391000Y-84211000D01*
X159411000Y-84211000D01*
X159411000Y-84191000D01*
X159889000Y-84191000D01*
X159889000Y-84211000D01*
M02*
